<svg xmlns="http://www.w3.org/2000/svg" xmlns:xlink="http://www.w3.org/1999/xlink" contentStyleType="text/css" data-diagram-type="STATE" height="644px" preserveAspectRatio="none" style="width:375px;height:644px;background:#FFFFFF;" version="1.1" viewBox="0 0 375 644" width="375px" zoomAndPan="magnify"><title>Overload Request</title><defs/><g><g class="title" data-source-line="1"><text fill="#000000" font-family="sans-serif" font-size="14" font-weight="bold" lengthAdjust="spacing" textLength="140.9707" x="110.0357" y="22.9951">Overload Request</text></g><ellipse cx="144.73" cy="53.2969" fill="#222222" rx="10" ry="10" style="stroke:#222222;stroke-width:1;"/><g id="Submitted"><rect fill="#F1F1F1" height="50" rx="12.5" ry="12.5" style="stroke:#181818;stroke-width:0.5;" width="92.6523" x="98.4" y="124.2969"/><line style="stroke:#181818;stroke-width:0.5;" x1="98.4" x2="191.0523" y1="150.5938" y2="150.5938"/><text fill="#000000" font-family="sans-serif" font-size="14" lengthAdjust="spacing" textLength="72.6523" x="108.4" y="142.292">Submitted</text></g><g id="UnderReview"><rect fill="#F1F1F1" height="50" rx="12.5" ry="12.5" style="stroke:#181818;stroke-width:0.5;" width="112.9551" x="88.25" y="251.2969"/><line style="stroke:#181818;stroke-width:0.5;" x1="88.25" x2="201.2051" y1="277.5938" y2="277.5938"/><text fill="#000000" font-family="sans-serif" font-size="14" lengthAdjust="spacing" textLength="92.9551" x="98.25" y="269.292">UnderReview</text></g><g id="Approved"><rect fill="#F1F1F1" height="50" rx="12.5" ry="12.5" style="stroke:#181818;stroke-width:0.5;" width="87.457" x="7" y="378.2969"/><line style="stroke:#181818;stroke-width:0.5;" x1="7" x2="94.457" y1="404.5938" y2="404.5938"/><text fill="#000000" font-family="sans-serif" font-size="14" lengthAdjust="spacing" textLength="67.457" x="17" y="396.292">Approved</text></g><g id="Denied"><rect fill="#F1F1F1" height="50" rx="12.5" ry="12.5" style="stroke:#181818;stroke-width:0.5;" width="69.6563" x="202.9" y="378.2969"/><line style="stroke:#181818;stroke-width:0.5;" x1="202.9" x2="272.5563" y1="404.5938" y2="404.5938"/><text fill="#000000" font-family="sans-serif" font-size="14" lengthAdjust="spacing" textLength="49.6563" x="212.9" y="396.292">Denied</text></g><g id="Notified"><rect fill="#F1F1F1" height="50" rx="12.5" ry="12.5" style="stroke:#181818;stroke-width:0.5;" width="74.7354" x="97.36" y="505.2969"/><line style="stroke:#181818;stroke-width:0.5;" x1="97.36" x2="172.0954" y1="531.5938" y2="531.5938"/><text fill="#000000" font-family="sans-serif" font-size="14" lengthAdjust="spacing" textLength="54.7354" x="107.36" y="523.292">Notified</text></g><ellipse cx="134.73" cy="627.2969" fill="none" rx="11" ry="11" style="stroke:#222222;stroke-width:1;"/><ellipse cx="134.73" cy="627.2969" fill="#222222" rx="6" ry="6" style="stroke:#222222;stroke-width:1;"/><!--link *start* to Submitted--><g class="link" data-entity-1=".start." data-entity-2="Submitted" data-link-type="dependency" data-source-line="3" data-uid="lnk4" id="link_.start._Submitted"><path d="M144.73,63.6569 C144.73,77.5869 144.73,98.2469 144.73,117.9469" fill="none" id="*start*-to-Submitted" style="stroke:#181818;stroke-width:1;"/><polygon fill="#181818" points="144.73,123.9469,148.73,114.9469,144.73,118.9469,140.73,114.9469,144.73,123.9469" style="stroke:#181818;stroke-width:1;"/></g><!--link Submitted to UnderReview--><g class="link" data-entity-1="Submitted" data-entity-2="UnderReview" data-link-type="dependency" data-source-line="5" data-uid="lnk6" id="link_Submitted_UnderReview"><path d="M144.73,174.6969 C144.73,196.7169 144.73,222.9569 144.73,244.9569" fill="none" id="Submitted-to-UnderReview" style="stroke:#181818;stroke-width:1;"/><polygon fill="#181818" points="144.73,250.9569,148.73,241.9569,144.73,245.9569,140.73,241.9569,144.73,250.9569" style="stroke:#181818;stroke-width:1;"/><text fill="#000000" font-family="sans-serif" font-size="13" lengthAdjust="spacing" textLength="160.0308" x="145.73" y="217.3638">instructor opens request</text></g><!--link UnderReview to Approved--><g class="link" data-entity-1="UnderReview" data-entity-2="Approved" data-link-type="dependency" data-source-line="6" data-uid="lnk8" id="link_UnderReview_Approved"><path d="M89.76,301.5469 C77.73,309.3569 66.33,319.2069 58.73,331.2969 C50.08,345.0569 48.1035,357.3275 48.3135,371.8875" fill="none" id="UnderReview-to-Approved" style="stroke:#181818;stroke-width:1;"/><polygon fill="#181818" points="48.4,377.8869,52.2698,368.8301,48.3279,372.8874,44.2706,368.9455,48.4,377.8869" style="stroke:#181818;stroke-width:1;"/><text fill="#000000" font-family="sans-serif" font-size="13" lengthAdjust="spacing" textLength="127.2134" x="59.73" y="344.3638">instructor approves</text></g><!--link UnderReview to Denied--><g class="link" data-entity-1="UnderReview" data-entity-2="Denied" data-link-type="dependency" data-source-line="7" data-uid="lnk10" id="link_UnderReview_Denied"><path d="M169.82,301.5369 C178.49,310.5069 187.97,320.9969 195.73,331.2969 C206.84,346.0569 214.5333,358.7069 222.2933,372.8469" fill="none" id="UnderReview-to-Denied" style="stroke:#181818;stroke-width:1;"/><polygon fill="#181818" points="225.18,378.1069,224.3567,368.2925,222.7745,373.7236,217.3434,372.1414,225.18,378.1069" style="stroke:#181818;stroke-width:1;"/><text fill="#000000" font-family="sans-serif" font-size="13" lengthAdjust="spacing" textLength="109.8525" x="208.73" y="344.3638">instructor denies</text></g><!--link Approved to Notified--><g class="link" data-entity-1="Approved" data-entity-2="Notified" data-link-type="dependency" data-source-line="9" data-uid="lnk12" id="link_Approved_Notified"><path d="M32.55,428.5069 C24.16,442.8269 17.84,460.9069 26.73,475.2969 C41.99,499.9969 66.6057,512.0438 91.2657,519.4838" fill="none" id="Approved-to-Notified" style="stroke:#181818;stroke-width:1;"/><polygon fill="#181818" points="97.01,521.2169,89.549,514.7878,92.2231,519.7727,87.2382,522.4468,97.01,521.2169" style="stroke:#181818;stroke-width:1;"/><text fill="#000000" font-family="sans-serif" font-size="13" lengthAdjust="spacing" textLength="169.6729" x="27.73" y="471.3638">send approval notification</text></g><!--link Denied to Notified--><g class="link" data-entity-1="Denied" data-entity-2="Notified" data-link-type="dependency" data-source-line="10" data-uid="lnk13" id="link_Denied_Notified"><path d="M228.51,428.4869 C222.28,442.9669 213.12,461.2269 201.73,475.2969 C192.89,486.2069 186.2344,492.6882 175.3644,501.1982" fill="none" id="Denied-to-Notified" style="stroke:#181818;stroke-width:1;"/><polygon fill="#181818" points="170.64,504.8969,180.1924,502.4985,174.577,501.8147,175.2608,496.1993,170.64,504.8969" style="stroke:#181818;stroke-width:1;"/><text fill="#000000" font-family="sans-serif" font-size="13" lengthAdjust="spacing" textLength="152.312" x="214.73" y="471.3638">send denial notification</text></g><!--link Notified to *end*--><g class="link" data-entity-1="Notified" data-entity-2=".end." data-link-type="dependency" data-source-line="12" data-uid="lnk15" id="link_Notified_.end."><path d="M134.73,555.7569 C134.73,575.3369 134.73,595.7869 134.73,610.0969" fill="none" id="Notified-to-*end*" style="stroke:#181818;stroke-width:1;"/><polygon fill="#181818" points="134.73,616.0969,138.73,607.0969,134.73,611.0969,130.73,607.0969,134.73,616.0969" style="stroke:#181818;stroke-width:1;"/></g><!--SRC=[RP112i9034NtEKNMGY_WGX1SArHSYOkn4o4mPcecqrxVJbkALdVX__VV8iOM24yTQOZEOqslJCa0hfiRLjKEp_d-P3Fo0Civ5XVnf3LrJ3rkaIMPviQYOcn94kei-iJARD-s6hl1yRLnKvf-y0C9hs5ViWImg0fuZCQF2KqaVZQwW38MZJEE0hFktw1OrpWiK5aCBta3]--></g></svg>