<svg xmlns="http://www.w3.org/2000/svg" xmlns:xlink="http://www.w3.org/1999/xlink" contentStyleType="text/css" data-diagram-type="DESCRIPTION" height="602px" preserveAspectRatio="none" style="width:1048px;height:602px;background:#FFFFFF;" version="1.1" viewBox="0 0 1048 602" width="1048px" zoomAndPan="magnify"><title>Package / Component Diagram</title><defs/><g><g class="title" data-source-line="1"><text fill="#000000" font-family="sans-serif" font-size="14" font-weight="bold" lengthAdjust="spacing" textLength="243.0859" x="395.457" y="22.9951">Package / Component Diagram</text></g><!--cluster User Management--><g class="cluster" data-entity="User Management" data-source-line="3" data-uid="ent0002" id="cluster_User Management"><path d="M288.5,43.2969 L433.5264,43.2969 A3.75,3.75 0 0 1 436.0264,45.7969 L443.0264,65.5938 L831.5,65.5938 A2.5,2.5 0 0 1 834,68.0938 L834,138.0869 A2.5,2.5 0 0 1 831.5,140.5869 L288.5,140.5869 A2.5,2.5 0 0 1 286,138.0869 L286,45.7969 A2.5,2.5 0 0 1 288.5,43.2969" fill="none" style="stroke:#000000;stroke-width:1.5;"/><line style="stroke:#000000;stroke-width:1.5;" x1="286" x2="443.0264" y1="65.5938" y2="65.5938"/><text fill="#000000" font-family="sans-serif" font-size="14" font-weight="bold" lengthAdjust="spacing" textLength="144.0264" x="290" y="58.292">User Management</text></g><!--cluster Course Management--><g class="cluster" data-entity="Course Management" data-source-line="10" data-uid="ent0007" id="cluster_Course Management"><path d="M523.5,164.5869 L687.0176,164.5869 A3.75,3.75 0 0 1 689.5176,167.0869 L696.5176,186.8838 L780.5,186.8838 A2.5,2.5 0 0 1 783,189.3838 L783,365.6869 A2.5,2.5 0 0 1 780.5,368.1869 L523.5,368.1869 A2.5,2.5 0 0 1 521,365.6869 L521,167.0869 A2.5,2.5 0 0 1 523.5,164.5869" fill="none" style="stroke:#000000;stroke-width:1.5;"/><line style="stroke:#000000;stroke-width:1.5;" x1="521" x2="696.5176" y1="186.8838" y2="186.8838"/><text fill="#000000" font-family="sans-serif" font-size="14" font-weight="bold" lengthAdjust="spacing" textLength="162.5176" x="525" y="179.582">Course Management</text></g><!--cluster Registration Management--><g class="cluster" data-entity="Registration Management" data-source-line="16" data-uid="ent0011" id="cluster_Registration Management"><path d="M550.5,392.1869 L756.9746,392.1869 A3.75,3.75 0 0 1 759.4746,394.6869 L766.4746,414.4838 L1038.5,414.4838 A2.5,2.5 0 0 1 1041,416.9838 L1041,593.2769 A2.5,2.5 0 0 1 1038.5,595.7769 L550.5,595.7769 A2.5,2.5 0 0 1 548,593.2769 L548,394.6869 A2.5,2.5 0 0 1 550.5,392.1869" fill="none" style="stroke:#000000;stroke-width:1.5;"/><line style="stroke:#000000;stroke-width:1.5;" x1="548" x2="766.4746" y1="414.4838" y2="414.4838"/><text fill="#000000" font-family="sans-serif" font-size="14" font-weight="bold" lengthAdjust="spacing" textLength="205.4746" x="552" y="407.182">Registration Management</text></g><!--cluster System Services--><g class="cluster" data-entity="System Services" data-source-line="23" data-uid="ent0016" id="cluster_System Services"><path d="M8.5,498.4769 L139.2256,498.4769 A3.75,3.75 0 0 1 141.7256,500.9769 L148.7256,520.7738 L521.5,520.7738 A2.5,2.5 0 0 1 524,523.2738 L524,593.2769 A2.5,2.5 0 0 1 521.5,595.7769 L8.5,595.7769 A2.5,2.5 0 0 1 6,593.2769 L6,500.9769 A2.5,2.5 0 0 1 8.5,498.4769" fill="none" style="stroke:#000000;stroke-width:1.5;"/><line style="stroke:#000000;stroke-width:1.5;" x1="6" x2="148.7256" y1="520.7738" y2="520.7738"/><text fill="#000000" font-family="sans-serif" font-size="14" font-weight="bold" lengthAdjust="spacing" textLength="129.7256" x="10" y="513.472">System Services</text></g><!--entity User--><g class="entity" data-entity="User" data-source-line="4" data-uid="ent0003" id="entity_User"><rect fill="#F1F1F1" height="46.2969" rx="2.5" ry="2.5" style="stroke:#181818;stroke-width:0.5;" width="71.9102" x="302.04" y="78.2969"/><rect fill="#F1F1F1" height="10" style="stroke:#181818;stroke-width:0.5;" width="15" x="353.9502" y="83.2969"/><rect fill="#F1F1F1" height="2" style="stroke:#181818;stroke-width:0.5;" width="4" x="351.9502" y="85.2969"/><rect fill="#F1F1F1" height="2" style="stroke:#181818;stroke-width:0.5;" width="4" x="351.9502" y="89.2969"/><text fill="#000000" font-family="sans-serif" font-size="14" lengthAdjust="spacing" textLength="31.9102" x="317.04" y="111.292">User</text></g><!--entity Student--><g class="entity" data-entity="Student" data-source-line="5" data-uid="ent0004" id="entity_Student"><rect fill="#F1F1F1" height="46.2969" rx="2.5" ry="2.5" style="stroke:#181818;stroke-width:0.5;" width="95.1113" x="409.44" y="78.2969"/><rect fill="#F1F1F1" height="10" style="stroke:#181818;stroke-width:0.5;" width="15" x="484.5513" y="83.2969"/><rect fill="#F1F1F1" height="2" style="stroke:#181818;stroke-width:0.5;" width="4" x="482.5513" y="85.2969"/><rect fill="#F1F1F1" height="2" style="stroke:#181818;stroke-width:0.5;" width="4" x="482.5513" y="89.2969"/><text fill="#000000" font-family="sans-serif" font-size="14" lengthAdjust="spacing" textLength="55.1113" x="424.44" y="111.292">Student</text></g><!--entity Instructor--><g class="entity" data-entity="Instructor" data-source-line="6" data-uid="ent0005" id="entity_Instructor"><rect fill="#F1F1F1" height="46.2969" rx="2.5" ry="2.5" style="stroke:#181818;stroke-width:0.5;" width="107.9219" x="710.04" y="78.2969"/><rect fill="#F1F1F1" height="10" style="stroke:#181818;stroke-width:0.5;" width="15" x="797.9619" y="83.2969"/><rect fill="#F1F1F1" height="2" style="stroke:#181818;stroke-width:0.5;" width="4" x="795.9619" y="85.2969"/><rect fill="#F1F1F1" height="2" style="stroke:#181818;stroke-width:0.5;" width="4" x="795.9619" y="89.2969"/><text fill="#000000" font-family="sans-serif" font-size="14" lengthAdjust="spacing" textLength="67.9219" x="725.04" y="111.292">Instructor</text></g><!--entity Administrator--><g class="entity" data-entity="Administrator" data-source-line="7" data-uid="ent0006" id="entity_Administrator"><rect fill="#F1F1F1" height="46.2969" rx="2.5" ry="2.5" style="stroke:#181818;stroke-width:0.5;" width="135.6826" x="539.16" y="78.2969"/><rect fill="#F1F1F1" height="10" style="stroke:#181818;stroke-width:0.5;" width="15" x="654.8426" y="83.2969"/><rect fill="#F1F1F1" height="2" style="stroke:#181818;stroke-width:0.5;" width="4" x="652.8426" y="85.2969"/><rect fill="#F1F1F1" height="2" style="stroke:#181818;stroke-width:0.5;" width="4" x="652.8426" y="89.2969"/><text fill="#000000" font-family="sans-serif" font-size="14" lengthAdjust="spacing" textLength="95.6826" x="554.16" y="111.292">Administrator</text></g><!--entity Course--><g class="entity" data-entity="Course" data-source-line="11" data-uid="ent0008" id="entity_Course"><rect fill="#F1F1F1" height="46.2969" rx="2.5" ry="2.5" style="stroke:#181818;stroke-width:0.5;" width="88.877" x="536.56" y="199.5869"/><rect fill="#F1F1F1" height="10" style="stroke:#181818;stroke-width:0.5;" width="15" x="605.437" y="204.5869"/><rect fill="#F1F1F1" height="2" style="stroke:#181818;stroke-width:0.5;" width="4" x="603.437" y="206.5869"/><rect fill="#F1F1F1" height="2" style="stroke:#181818;stroke-width:0.5;" width="4" x="603.437" y="210.5869"/><text fill="#000000" font-family="sans-serif" font-size="14" lengthAdjust="spacing" textLength="48.877" x="551.56" y="232.582">Course</text></g><!--entity Section--><g class="entity" data-entity="Section" data-source-line="12" data-uid="ent0009" id="entity_Section"><rect fill="#F1F1F1" height="46.2969" rx="2.5" ry="2.5" style="stroke:#181818;stroke-width:0.5;" width="92.0146" x="565.99" y="305.8869"/><rect fill="#F1F1F1" height="10" style="stroke:#181818;stroke-width:0.5;" width="15" x="638.0046" y="310.8869"/><rect fill="#F1F1F1" height="2" style="stroke:#181818;stroke-width:0.5;" width="4" x="636.0046" y="312.8869"/><rect fill="#F1F1F1" height="2" style="stroke:#181818;stroke-width:0.5;" width="4" x="636.0046" y="316.8869"/><text fill="#000000" font-family="sans-serif" font-size="14" lengthAdjust="spacing" textLength="52.0146" x="580.99" y="338.882">Section</text></g><!--entity Semester--><g class="entity" data-entity="Semester" data-source-line="13" data-uid="ent0010" id="entity_Semester"><rect fill="#F1F1F1" height="46.2969" rx="2.5" ry="2.5" style="stroke:#181818;stroke-width:0.5;" width="106.9033" x="660.55" y="199.5869"/><rect fill="#F1F1F1" height="10" style="stroke:#181818;stroke-width:0.5;" width="15" x="747.4533" y="204.5869"/><rect fill="#F1F1F1" height="2" style="stroke:#181818;stroke-width:0.5;" width="4" x="745.4533" y="206.5869"/><rect fill="#F1F1F1" height="2" style="stroke:#181818;stroke-width:0.5;" width="4" x="745.4533" y="210.5869"/><text fill="#000000" font-family="sans-serif" font-size="14" lengthAdjust="spacing" textLength="66.9033" x="675.55" y="232.582">Semester</text></g><!--entity Registration--><g class="entity" data-entity="Registration" data-source-line="17" data-uid="ent0012" id="entity_Registration"><rect fill="#F1F1F1" height="46.2969" rx="2.5" ry="2.5" style="stroke:#181818;stroke-width:0.5;" width="125.0527" x="564.47" y="427.1869"/><rect fill="#F1F1F1" height="10" style="stroke:#181818;stroke-width:0.5;" width="15" x="669.5227" y="432.1869"/><rect fill="#F1F1F1" height="2" style="stroke:#181818;stroke-width:0.5;" width="4" x="667.5227" y="434.1869"/><rect fill="#F1F1F1" height="2" style="stroke:#181818;stroke-width:0.5;" width="4" x="667.5227" y="438.1869"/><text fill="#000000" font-family="sans-serif" font-size="14" lengthAdjust="spacing" textLength="85.0527" x="579.47" y="460.182">Registration</text></g><!--entity OverloadRequest--><g class="entity" data-entity="OverloadRequest" data-source-line="18" data-uid="ent0013" id="entity_OverloadRequest"><rect fill="#F1F1F1" height="46.2969" rx="2.5" ry="2.5" style="stroke:#181818;stroke-width:0.5;" width="161.0918" x="724.45" y="427.1869"/><rect fill="#F1F1F1" height="10" style="stroke:#181818;stroke-width:0.5;" width="15" x="865.5418" y="432.1869"/><rect fill="#F1F1F1" height="2" style="stroke:#181818;stroke-width:0.5;" width="4" x="863.5418" y="434.1869"/><rect fill="#F1F1F1" height="2" style="stroke:#181818;stroke-width:0.5;" width="4" x="863.5418" y="438.1869"/><text fill="#000000" font-family="sans-serif" font-size="14" lengthAdjust="spacing" textLength="121.0918" x="739.45" y="460.182">OverloadRequest</text></g><!--entity Schedule--><g class="entity" data-entity="Schedule" data-source-line="19" data-uid="ent0014" id="entity_Schedule"><rect fill="#F1F1F1" height="46.2969" rx="2.5" ry="2.5" style="stroke:#181818;stroke-width:0.5;" width="104.333" x="920.83" y="427.1869"/><rect fill="#F1F1F1" height="10" style="stroke:#181818;stroke-width:0.5;" width="15" x="1005.163" y="432.1869"/><rect fill="#F1F1F1" height="2" style="stroke:#181818;stroke-width:0.5;" width="4" x="1003.163" y="434.1869"/><rect fill="#F1F1F1" height="2" style="stroke:#181818;stroke-width:0.5;" width="4" x="1003.163" y="438.1869"/><text fill="#000000" font-family="sans-serif" font-size="14" lengthAdjust="spacing" textLength="64.333" x="935.83" y="460.182">Schedule</text></g><!--entity Transcript--><g class="entity" data-entity="Transcript" data-source-line="20" data-uid="ent0015" id="entity_Transcript"><rect fill="#F1F1F1" height="46.2969" rx="2.5" ry="2.5" style="stroke:#181818;stroke-width:0.5;" width="110.7725" x="571.61" y="533.4769"/><rect fill="#F1F1F1" height="10" style="stroke:#181818;stroke-width:0.5;" width="15" x="662.3825" y="538.4769"/><rect fill="#F1F1F1" height="2" style="stroke:#181818;stroke-width:0.5;" width="4" x="660.3825" y="540.4769"/><rect fill="#F1F1F1" height="2" style="stroke:#181818;stroke-width:0.5;" width="4" x="660.3825" y="544.4769"/><text fill="#000000" font-family="sans-serif" font-size="14" lengthAdjust="spacing" textLength="70.7725" x="586.61" y="566.472">Transcript</text></g><!--entity AuthenticationService--><g class="entity" data-entity="AuthenticationService" data-source-line="24" data-uid="ent0017" id="entity_AuthenticationService"><rect fill="#F1F1F1" height="46.2969" rx="2.5" ry="2.5" style="stroke:#181818;stroke-width:0.5;" width="194.5127" x="21.74" y="533.4769"/><rect fill="#F1F1F1" height="10" style="stroke:#181818;stroke-width:0.5;" width="15" x="196.2527" y="538.4769"/><rect fill="#F1F1F1" height="2" style="stroke:#181818;stroke-width:0.5;" width="4" x="194.2527" y="540.4769"/><rect fill="#F1F1F1" height="2" style="stroke:#181818;stroke-width:0.5;" width="4" x="194.2527" y="544.4769"/><text fill="#000000" font-family="sans-serif" font-size="14" lengthAdjust="spacing" textLength="154.5127" x="36.74" y="566.472">AuthenticationService</text></g><!--entity Notification--><g class="entity" data-entity="Notification" data-source-line="25" data-uid="ent0018" id="entity_Notification"><rect fill="#F1F1F1" height="46.2969" rx="2.5" ry="2.5" style="stroke:#181818;stroke-width:0.5;" width="120.3291" x="250.84" y="533.4769"/><rect fill="#F1F1F1" height="10" style="stroke:#181818;stroke-width:0.5;" width="15" x="351.1691" y="538.4769"/><rect fill="#F1F1F1" height="2" style="stroke:#181818;stroke-width:0.5;" width="4" x="349.1691" y="540.4769"/><rect fill="#F1F1F1" height="2" style="stroke:#181818;stroke-width:0.5;" width="4" x="349.1691" y="544.4769"/><text fill="#000000" font-family="sans-serif" font-size="14" lengthAdjust="spacing" textLength="80.3291" x="265.84" y="566.472">Notification</text></g><!--entity AuditLog--><g class="entity" data-entity="AuditLog" data-source-line="26" data-uid="ent0019" id="entity_AuditLog"><rect fill="#F1F1F1" height="46.2969" rx="2.5" ry="2.5" style="stroke:#181818;stroke-width:0.5;" width="101.9678" x="406.02" y="533.4769"/><rect fill="#F1F1F1" height="10" style="stroke:#181818;stroke-width:0.5;" width="15" x="487.9878" y="538.4769"/><rect fill="#F1F1F1" height="2" style="stroke:#181818;stroke-width:0.5;" width="4" x="485.9878" y="540.4769"/><rect fill="#F1F1F1" height="2" style="stroke:#181818;stroke-width:0.5;" width="4" x="485.9878" y="544.4769"/><text fill="#000000" font-family="sans-serif" font-size="14" lengthAdjust="spacing" textLength="61.9678" x="421.02" y="566.472">AuditLog</text></g><!--link Student to Registration--><g class="link" data-entity-1="Student" data-entity-2="Registration" data-link-type="dependency" data-source-line="29" data-uid="lnk20" id="link_Student_Registration"><path d="M456.96,124.7969 C457.93,174.4269 466.17,295.7269 521,376.1869 C535.54,397.5269 553.3608,411.4678 574.2208,423.6678" fill="none" id="Student-to-Registration" style="stroke:#181818;stroke-width:1;"/><polygon fill="#181818" points="579.4,426.6969,573.6505,418.7004,575.084,424.1726,569.6117,425.6061,579.4,426.6969" style="stroke:#181818;stroke-width:1;"/></g><!--link Instructor to OverloadRequest--><g class="link" data-entity-1="Instructor" data-entity-2="OverloadRequest" data-link-type="dependency" data-source-line="30" data-uid="lnk21" id="link_Instructor_OverloadRequest"><path d="M773.4,124.9869 C777,134.5669 780.78,145.9569 783,156.5869 C803.77,255.8669 805.5692,371.6869 805.3292,421.0169" fill="none" id="Instructor-to-OverloadRequest" style="stroke:#181818;stroke-width:1;"/><polygon fill="#181818" points="805.3,427.0169,809.3437,418.0364,805.3243,422.0169,801.3438,417.9975,805.3,427.0169" style="stroke:#181818;stroke-width:1;"/></g><!--link Administrator to Course--><g class="link" data-entity-1="Administrator" data-entity-2="Course" data-link-type="dependency" data-source-line="31" data-uid="lnk22" id="link_Administrator_Course"><path d="M602.11,124.8769 C597.46,146.2069 591.7877,172.2445 587.1477,193.5345" fill="none" id="Administrator-to-Course" style="stroke:#181818;stroke-width:1;"/><polygon fill="#181818" points="585.87,199.3969,591.6948,191.4551,586.9347,194.5116,583.8782,189.7515,585.87,199.3969" style="stroke:#181818;stroke-width:1;"/></g><!--link Course to Section--><g class="link" data-entity-1="Course" data-entity-2="Section" data-link-type="dependency" data-source-line="32" data-uid="lnk23" id="link_Course_Section"><path d="M587.73,246.3669 C592.93,263.8669 598.3792,282.2159 603.5792,299.6959" fill="none" id="Course-to-Section" style="stroke:#181818;stroke-width:1;"/><polygon fill="#181818" points="605.29,305.4469,606.5577,295.68,603.8643,300.6544,598.8898,297.961,605.29,305.4469" style="stroke:#181818;stroke-width:1;"/></g><!--link Section to Registration--><g class="link" data-entity-1="Section" data-entity-2="Registration" data-link-type="dependency" data-source-line="33" data-uid="lnk24" id="link_Section_Registration"><path d="M614.82,352.4769 C617.5,373.8069 620.761,399.7438 623.441,421.0438" fill="none" id="Section-to-Registration" style="stroke:#181818;stroke-width:1;"/><polygon fill="#181818" points="624.19,426.9969,627.0352,417.5679,623.5658,422.036,619.0978,418.5666,624.19,426.9969" style="stroke:#181818;stroke-width:1;"/></g><!--link Registration to Transcript--><g class="link" data-entity-1="Registration" data-entity-2="Transcript" data-link-type="dependency" data-source-line="34" data-uid="lnk25" id="link_Registration_Transcript"><path d="M627,473.9669 C627,491.4569 627,509.5569 627,527.0369" fill="none" id="Registration-to-Transcript" style="stroke:#181818;stroke-width:1;"/><polygon fill="#181818" points="627,533.0369,631,524.0369,627,528.0369,623,524.0369,627,533.0369" style="stroke:#181818;stroke-width:1;"/></g><!--link User to AuthenticationService--><g class="link" data-entity-1="User" data-entity-2="AuthenticationService" data-link-type="dependency" data-source-line="35" data-uid="lnk26" id="link_User_AuthenticationService"><path d="M327.14,124.9169 C289.85,202.0669 169.9204,450.2545 132.5404,527.6145" fill="none" id="User-to-AuthenticationService" style="stroke:#181818;stroke-width:1;"/><polygon fill="#181818" points="129.93,533.0169,137.4472,526.6536,132.1053,528.5149,130.244,523.173,129.93,533.0169" style="stroke:#181818;stroke-width:1;"/></g><!--link Registration to Notification--><g class="link" data-entity-1="Registration" data-entity-2="Notification" data-link-type="dependency" data-source-line="36" data-uid="lnk27" id="link_Registration_Notification"><path d="M563.98,452.6869 C514.42,455.8369 444.68,464.9769 389,490.4769 C367.02,500.5469 350.4828,514.2645 335.9028,528.7745" fill="none" id="Registration-to-Notification" style="stroke:#181818;stroke-width:1;"/><polygon fill="#181818" points="331.65,533.0069,340.8509,529.4935,335.194,529.4799,335.2076,523.823,331.65,533.0069" style="stroke:#181818;stroke-width:1;"/></g><!--SRC=[TP7DQiCm48JlVeebzz0tA8JqKkWVSNigFGXvwoor94TQ1KBekrVHAiO_wMqqktmZZPYuGtXJ-aUr27UmTQPt5Yt30wdMArDLVHckFW9wU5Os7KpQMC6v0lYyk5yNKNDiaftremtiesOdeqrZo5AoL7P-Hz2jYpxW4Yk-W54pELkqmS0uW-om5NfQMwB6qmnvFQBld6fsU8Y99c2znoPsalZkbGtQKy_JdFgKiWtKw8-aCHJ-9l8-fP7E2MMOEI-EwRluKaHiY9zScx53Ox1Uty-lEQvGvejRpsgLhMjlLo7kKE6WRcPEZh8nhaB-Mln_7dqBCMdX3m00]--></g></svg>