<svg xmlns="http://www.w3.org/2000/svg" xmlns:xlink="http://www.w3.org/1999/xlink" contentStyleType="text/css" data-diagram-type="ACTIVITY" height="566px" preserveAspectRatio="none" style="width:777px;height:566px;background:#FFFFFF;" version="1.1" viewBox="0 0 777 566" width="777px" zoomAndPan="magnify"><title>Activity Diagram - Drop Course</title><defs/><g><g class="title" data-source-line="1"><text fill="#000000" font-family="sans-serif" font-size="14" font-weight="bold" lengthAdjust="spacing" textLength="245.2598" x="264.6865" y="32.9951">Activity Diagram - Drop Course</text></g><ellipse cx="446.0415" cy="57.2969" fill="#222222" rx="10" ry="10" style="stroke:#222222;stroke-width:1;"/><rect fill="#F1F1F1" height="33.9688" rx="12.5" ry="12.5" style="stroke:#181818;stroke-width:0.5;" width="204.0723" x="344.0054" y="87.2969"/><text fill="#000000" font-family="sans-serif" font-size="12" lengthAdjust="spacing" textLength="184.0723" x="354.0054" y="108.4355">Student selects course to drop</text><rect fill="#F1F1F1" height="33.9688" rx="12.5" ry="12.5" style="stroke:#181818;stroke-width:0.5;" width="131.2402" x="380.4214" y="141.2656"/><text fill="#000000" font-family="sans-serif" font-size="12" lengthAdjust="spacing" textLength="111.2402" x="390.4214" y="162.4043">Send drop request</text><rect fill="#F1F1F1" height="33.9688" rx="12.5" ry="12.5" style="stroke:#181818;stroke-width:0.5;" width="124.3145" x="383.8843" y="195.2344"/><text fill="#000000" font-family="sans-serif" font-size="12" lengthAdjust="spacing" textLength="104.3145" x="393.8843" y="216.373">Verify enrollment</text><polygon fill="#F1F1F1" points="397.2961,249.2031,494.7869,249.2031,506.7869,261.2031,494.7869,273.2031,397.2961,273.2031,385.2961,261.2031,397.2961,249.2031" style="stroke:#181818;stroke-width:0.5;"/><text fill="#000000" font-family="sans-serif" font-size="11" lengthAdjust="spacing" textLength="97.4907" x="397.2961" y="265.0112">Student enrolled?</text><text fill="#000000" font-family="sans-serif" font-size="11" lengthAdjust="spacing" textLength="19.2178" x="366.0784" y="258.6089">Yes</text><text fill="#000000" font-family="sans-serif" font-size="11" lengthAdjust="spacing" textLength="14.9585" x="506.7869" y="258.6089">No</text><rect fill="#F1F1F1" height="33.9688" rx="12.5" ry="12.5" style="stroke:#181818;stroke-width:0.5;" width="143.6797" x="182.9775" y="283.2031"/><text fill="#000000" font-family="sans-serif" font-size="12" lengthAdjust="spacing" textLength="123.6797" x="192.9775" y="304.3418">Check drop deadline</text><polygon fill="#F1F1F1" points="208.865,337.1719,300.7698,337.1719,312.7698,349.1719,300.7698,361.1719,208.865,361.1719,196.865,349.1719,208.865,337.1719" style="stroke:#181818;stroke-width:0.5;"/><text fill="#000000" font-family="sans-serif" font-size="11" lengthAdjust="spacing" textLength="91.9048" x="208.865" y="352.98">Within deadline?</text><text fill="#000000" font-family="sans-serif" font-size="11" lengthAdjust="spacing" textLength="19.2178" x="177.6472" y="346.5776">Yes</text><text fill="#000000" font-family="sans-serif" font-size="11" lengthAdjust="spacing" textLength="14.9585" x="312.7698" y="346.5776">No</text><rect fill="#F1F1F1" height="33.9688" rx="12.5" ry="12.5" style="stroke:#181818;stroke-width:0.5;" width="219.2363" x="23.4746" y="371.1719"/><text fill="#000000" font-family="sans-serif" font-size="12" lengthAdjust="spacing" textLength="199.2363" x="33.4746" y="392.3105">Update registration to "Dropped"</text><rect fill="#F1F1F1" height="33.9688" rx="12.5" ry="12.5" style="stroke:#181818;stroke-width:0.5;" width="244.1855" x="11" y="425.1406"/><text fill="#000000" font-family="sans-serif" font-size="12" lengthAdjust="spacing" textLength="224.1855" x="21" y="446.2793">Promote next waitlist student (if any)</text><rect fill="#F1F1F1" height="33.9688" rx="12.5" ry="12.5" style="stroke:#181818;stroke-width:0.5;" width="161.4277" x="52.3789" y="479.1094"/><text fill="#000000" font-family="sans-serif" font-size="12" lengthAdjust="spacing" textLength="141.4277" x="62.3789" y="500.248">Send drop confirmation</text><ellipse cx="133.0928" cy="544.0781" fill="none" rx="11" ry="11" style="stroke:#222222;stroke-width:1;"/><ellipse cx="133.0928" cy="544.0781" fill="#222222" rx="6" ry="6" style="stroke:#222222;stroke-width:1;"/><rect fill="#F1F1F1" height="33.9688" rx="12.5" ry="12.5" style="stroke:#181818;stroke-width:0.5;" width="167.7441" x="292.6699" y="371.1719"/><text fill="#000000" font-family="sans-serif" font-size="12" lengthAdjust="spacing" textLength="147.7441" x="302.6699" y="392.3105">Create late drop request</text><rect fill="#F1F1F1" height="33.9688" rx="12.5" ry="12.5" style="stroke:#181818;stroke-width:0.5;" width="202.7129" x="275.1855" y="425.1406"/><text fill="#000000" font-family="sans-serif" font-size="12" lengthAdjust="spacing" textLength="182.7129" x="285.1855" y="446.2793">Notify administrator/instructor</text><ellipse cx="376.542" cy="490.1094" fill="none" rx="11" ry="11" style="stroke:#222222;stroke-width:1;"/><ellipse cx="376.542" cy="490.1094" fill="#222222" rx="6" ry="6" style="stroke:#222222;stroke-width:1;"/><rect fill="#F1F1F1" height="33.9688" rx="12.5" ry="12.5" style="stroke:#181818;stroke-width:0.5;" width="258.7344" x="507.8984" y="283.2031"/><text fill="#000000" font-family="sans-serif" font-size="12" lengthAdjust="spacing" textLength="238.7344" x="517.8984" y="304.3418">Show error "Not enrolled in this course"</text><ellipse cx="637.2656" cy="348.1719" fill="none" rx="11" ry="11" style="stroke:#222222;stroke-width:1;"/><ellipse cx="637.2656" cy="348.1719" fill="#222222" rx="6" ry="6" style="stroke:#222222;stroke-width:1;"/><line style="stroke:#181818;stroke-width:1;" x1="446.0415" x2="446.0415" y1="67.2969" y2="87.2969"/><polygon fill="#181818" points="442.0415,77.2969,446.0415,87.2969,450.0415,77.2969,446.0415,81.2969" style="stroke:#181818;stroke-width:1;"/><line style="stroke:#181818;stroke-width:1;" x1="446.0415" x2="446.0415" y1="121.2656" y2="141.2656"/><polygon fill="#181818" points="442.0415,131.2656,446.0415,141.2656,450.0415,131.2656,446.0415,135.2656" style="stroke:#181818;stroke-width:1;"/><line style="stroke:#181818;stroke-width:1;" x1="446.0415" x2="446.0415" y1="175.2344" y2="195.2344"/><polygon fill="#181818" points="442.0415,185.2344,446.0415,195.2344,450.0415,185.2344,446.0415,189.2344" style="stroke:#181818;stroke-width:1;"/><line style="stroke:#181818;stroke-width:1;" x1="133.0928" x2="133.0928" y1="405.1406" y2="425.1406"/><polygon fill="#181818" points="129.0928,415.1406,133.0928,425.1406,137.0928,415.1406,133.0928,419.1406" style="stroke:#181818;stroke-width:1;"/><line style="stroke:#181818;stroke-width:1;" x1="133.0928" x2="133.0928" y1="459.1094" y2="479.1094"/><polygon fill="#181818" points="129.0928,469.1094,133.0928,479.1094,137.0928,469.1094,133.0928,473.1094" style="stroke:#181818;stroke-width:1;"/><line style="stroke:#181818;stroke-width:1;" x1="133.0928" x2="133.0928" y1="513.0781" y2="533.0781"/><polygon fill="#181818" points="129.0928,523.0781,133.0928,533.0781,137.0928,523.0781,133.0928,527.0781" style="stroke:#181818;stroke-width:1;"/><line style="stroke:#181818;stroke-width:1;" x1="376.542" x2="376.542" y1="405.1406" y2="425.1406"/><polygon fill="#181818" points="372.542,415.1406,376.542,425.1406,380.542,415.1406,376.542,419.1406" style="stroke:#181818;stroke-width:1;"/><line style="stroke:#181818;stroke-width:1;" x1="376.542" x2="376.542" y1="459.1094" y2="479.1094"/><polygon fill="#181818" points="372.542,469.1094,376.542,479.1094,380.542,469.1094,376.542,473.1094" style="stroke:#181818;stroke-width:1;"/><line style="stroke:#181818;stroke-width:1;" x1="196.865" x2="133.0928" y1="349.1719" y2="349.1719"/><line style="stroke:#181818;stroke-width:1;" x1="133.0928" x2="133.0928" y1="349.1719" y2="371.1719"/><polygon fill="#181818" points="129.0928,361.1719,133.0928,371.1719,137.0928,361.1719,133.0928,365.1719" style="stroke:#181818;stroke-width:1;"/><line style="stroke:#181818;stroke-width:1;" x1="312.7698" x2="376.542" y1="349.1719" y2="349.1719"/><line style="stroke:#181818;stroke-width:1;" x1="376.542" x2="376.542" y1="349.1719" y2="371.1719"/><polygon fill="#181818" points="372.542,361.1719,376.542,371.1719,380.542,361.1719,376.542,365.1719" style="stroke:#181818;stroke-width:1;"/><line style="stroke:#181818;stroke-width:1;" x1="254.8174" x2="254.8174" y1="317.1719" y2="337.1719"/><polygon fill="#181818" points="250.8174,327.1719,254.8174,337.1719,258.8174,327.1719,254.8174,331.1719" style="stroke:#181818;stroke-width:1;"/><line style="stroke:#181818;stroke-width:1;" x1="637.2656" x2="637.2656" y1="317.1719" y2="337.1719"/><polygon fill="#181818" points="633.2656,327.1719,637.2656,337.1719,641.2656,327.1719,637.2656,331.1719" style="stroke:#181818;stroke-width:1;"/><line style="stroke:#181818;stroke-width:1;" x1="385.2961" x2="254.8174" y1="261.2031" y2="261.2031"/><line style="stroke:#181818;stroke-width:1;" x1="254.8174" x2="254.8174" y1="261.2031" y2="283.2031"/><polygon fill="#181818" points="250.8174,273.2031,254.8174,283.2031,258.8174,273.2031,254.8174,277.2031" style="stroke:#181818;stroke-width:1;"/><line style="stroke:#181818;stroke-width:1;" x1="506.7869" x2="637.2656" y1="261.2031" y2="261.2031"/><line style="stroke:#181818;stroke-width:1;" x1="637.2656" x2="637.2656" y1="261.2031" y2="283.2031"/><polygon fill="#181818" points="633.2656,273.2031,637.2656,283.2031,641.2656,273.2031,637.2656,277.2031" style="stroke:#181818;stroke-width:1;"/><line style="stroke:#181818;stroke-width:1;" x1="446.0415" x2="446.0415" y1="229.2031" y2="249.2031"/><polygon fill="#181818" points="442.0415,239.2031,446.0415,249.2031,450.0415,239.2031,446.0415,243.2031" style="stroke:#181818;stroke-width:1;"/><!--SRC=[RL6xRiCm3Dpr5KGcPoYwsqDH97DG86YBZe95nqHbqQNefldxqieRhGQ14k-EfvEIHeJdLkcRz01hyZln0pp0MdY45K-IqRciNjIvUgjJmAIGCMAh6ThI1sK81cyCW2cK6WI_9ipQ6EiDXRe3O1AESJ1-uwY3wYnslCVmj0JjCK7rWNdfm5Qzwh7zFEe5z25ImgPqPluxQK_fqlXBBnAlO_2APcT7MSKhSPhzBkRtZHWMpHNw8ZomOHF-AEoz9MCKo2URbStqwR2y8LnVstBgI8OYVmLavR4SC5fArOPlVAq4Przntku3kq0sh7DkFWoKZkPP7YbPDRLM_ZSd1UhS_RHws_CUK8G55YPvoHiiF4lm_8kd98fMqVa5]--></g></svg>