<svg xmlns="http://www.w3.org/2000/svg" xmlns:xlink="http://www.w3.org/1999/xlink" contentStyleType="text/css" data-diagram-type="ACTIVITY" height="542px" preserveAspectRatio="none" style="width:563px;height:542px;background:#FFFFFF;" version="1.1" viewBox="0 0 563 542" width="563px" zoomAndPan="magnify"><title>Activity Diagram - Approve Overload Request</title><defs/><g><g class="title" data-source-line="1"><text fill="#000000" font-family="sans-serif" font-size="14" font-weight="bold" lengthAdjust="spacing" textLength="359.4951" x="100.562" y="32.9951">Activity Diagram - Approve Overload Request</text></g><ellipse cx="302.842" cy="57.2969" fill="#222222" rx="10" ry="10" style="stroke:#222222;stroke-width:1;"/><rect fill="#F1F1F1" height="33.9688" rx="12.5" ry="12.5" style="stroke:#181818;stroke-width:0.5;" width="221.832" x="191.926" y="87.2969"/><text fill="#000000" font-family="sans-serif" font-size="12" lengthAdjust="spacing" textLength="201.832" x="201.926" y="108.4355">Instructor views overload request</text><rect fill="#F1F1F1" height="33.9688" rx="12.5" ry="12.5" style="stroke:#181818;stroke-width:0.5;" width="207.0781" x="199.303" y="141.2656"/><text fill="#000000" font-family="sans-serif" font-size="12" lengthAdjust="spacing" textLength="187.0781" x="209.303" y="162.4043">Review details and justification</text><polygon fill="#F1F1F1" points="254.137,195.2344,351.5471,195.2344,363.5471,207.2344,351.5471,219.2344,254.137,219.2344,242.137,207.2344,254.137,195.2344" style="stroke:#181818;stroke-width:0.5;"/><text fill="#000000" font-family="sans-serif" font-size="11" lengthAdjust="spacing" textLength="97.4102" x="254.137" y="211.0425">Approve request?</text><text fill="#000000" font-family="sans-serif" font-size="11" lengthAdjust="spacing" textLength="19.2178" x="222.9192" y="204.6401">Yes</text><text fill="#000000" font-family="sans-serif" font-size="11" lengthAdjust="spacing" textLength="14.9585" x="363.5471" y="204.6401">No</text><rect fill="#F1F1F1" height="33.9688" rx="12.5" ry="12.5" style="stroke:#181818;stroke-width:0.5;" width="205.5898" x="45.436" y="229.2344"/><text fill="#000000" font-family="sans-serif" font-size="12" lengthAdjust="spacing" textLength="185.5898" x="55.436" y="250.373">Set request status = Approved</text><rect fill="#F1F1F1" height="33.9688" rx="12.5" ry="12.5" style="stroke:#181818;stroke-width:0.5;" width="155.7734" x="70.3442" y="283.2031"/><text fill="#000000" font-family="sans-serif" font-size="12" lengthAdjust="spacing" textLength="135.7734" x="80.3442" y="304.3418">Check if seat available</text><polygon fill="#F1F1F1" points="106.3364,337.1719,190.1255,337.1719,202.1255,349.1719,190.1255,361.1719,106.3364,361.1719,94.3364,349.1719,106.3364,337.1719" style="stroke:#181818;stroke-width:0.5;"/><text fill="#000000" font-family="sans-serif" font-size="11" lengthAdjust="spacing" textLength="83.7891" x="106.3364" y="352.98">Seat available?</text><text fill="#000000" font-family="sans-serif" font-size="11" lengthAdjust="spacing" textLength="19.2178" x="75.1187" y="346.5776">Yes</text><text fill="#000000" font-family="sans-serif" font-size="11" lengthAdjust="spacing" textLength="14.9585" x="202.1255" y="346.5776">No</text><rect fill="#F1F1F1" height="33.9688" rx="12.5" ry="12.5" style="stroke:#181818;stroke-width:0.5;" width="103.8184" x="11" y="371.1719"/><text fill="#000000" font-family="sans-serif" font-size="12" lengthAdjust="spacing" textLength="83.8184" x="21" y="392.3105">Enroll student</text><rect fill="#F1F1F1" height="33.9688" rx="12.5" ry="12.5" style="stroke:#181818;stroke-width:0.5;" width="197.4688" x="134.8184" y="371.1719"/><text fill="#000000" font-family="sans-serif" font-size="12" lengthAdjust="spacing" textLength="177.4688" x="144.8184" y="392.3105">Mark as "Approved - No seat"</text><polygon fill="#F1F1F1" points="148.231,411.1406,160.231,423.1406,148.231,435.1406,136.231,423.1406,148.231,411.1406" style="stroke:#181818;stroke-width:0.5;"/><rect fill="#F1F1F1" height="33.9688" rx="12.5" ry="12.5" style="stroke:#181818;stroke-width:0.5;" width="177.2188" x="59.6216" y="455.1406"/><text fill="#000000" font-family="sans-serif" font-size="12" lengthAdjust="spacing" textLength="157.2188" x="69.6216" y="476.2793">Notify student of approval</text><ellipse cx="148.231" cy="520.1094" fill="none" rx="11" ry="11" style="stroke:#222222;stroke-width:1;"/><ellipse cx="148.231" cy="520.1094" fill="#222222" rx="6" ry="6" style="stroke:#222222;stroke-width:1;"/><rect fill="#F1F1F1" height="33.9688" rx="12.5" ry="12.5" style="stroke:#181818;stroke-width:0.5;" width="190.332" x="362.2871" y="229.2344"/><text fill="#000000" font-family="sans-serif" font-size="12" lengthAdjust="spacing" textLength="170.332" x="372.2871" y="250.373">Set request status = Denied</text><rect fill="#F1F1F1" height="33.9688" rx="12.5" ry="12.5" style="stroke:#181818;stroke-width:0.5;" width="161.1934" x="376.8564" y="283.2031"/><text fill="#000000" font-family="sans-serif" font-size="12" lengthAdjust="spacing" textLength="141.1934" x="386.8564" y="304.3418">Notify student of denial</text><ellipse cx="457.4531" cy="348.1719" fill="none" rx="11" ry="11" style="stroke:#222222;stroke-width:1;"/><ellipse cx="457.4531" cy="348.1719" fill="#222222" rx="6" ry="6" style="stroke:#222222;stroke-width:1;"/><line style="stroke:#181818;stroke-width:1;" x1="302.842" x2="302.842" y1="67.2969" y2="87.2969"/><polygon fill="#181818" points="298.842,77.2969,302.842,87.2969,306.842,77.2969,302.842,81.2969" style="stroke:#181818;stroke-width:1;"/><line style="stroke:#181818;stroke-width:1;" x1="302.842" x2="302.842" y1="121.2656" y2="141.2656"/><polygon fill="#181818" points="298.842,131.2656,302.842,141.2656,306.842,131.2656,302.842,135.2656" style="stroke:#181818;stroke-width:1;"/><line style="stroke:#181818;stroke-width:1;" x1="148.231" x2="148.231" y1="263.2031" y2="283.2031"/><polygon fill="#181818" points="144.231,273.2031,148.231,283.2031,152.231,273.2031,148.231,277.2031" style="stroke:#181818;stroke-width:1;"/><line style="stroke:#181818;stroke-width:1;" x1="94.3364" x2="62.9092" y1="349.1719" y2="349.1719"/><line style="stroke:#181818;stroke-width:1;" x1="62.9092" x2="62.9092" y1="349.1719" y2="371.1719"/><polygon fill="#181818" points="58.9092,361.1719,62.9092,371.1719,66.9092,361.1719,62.9092,365.1719" style="stroke:#181818;stroke-width:1;"/><line style="stroke:#181818;stroke-width:1;" x1="202.1255" x2="233.5527" y1="349.1719" y2="349.1719"/><line style="stroke:#181818;stroke-width:1;" x1="233.5527" x2="233.5527" y1="349.1719" y2="371.1719"/><polygon fill="#181818" points="229.5527,361.1719,233.5527,371.1719,237.5527,361.1719,233.5527,365.1719" style="stroke:#181818;stroke-width:1;"/><line style="stroke:#181818;stroke-width:1;" x1="62.9092" x2="62.9092" y1="405.1406" y2="423.1406"/><line style="stroke:#181818;stroke-width:1;" x1="62.9092" x2="136.231" y1="423.1406" y2="423.1406"/><polygon fill="#181818" points="126.231,419.1406,136.231,423.1406,126.231,427.1406,130.231,423.1406" style="stroke:#181818;stroke-width:1;"/><line style="stroke:#181818;stroke-width:1;" x1="233.5527" x2="233.5527" y1="405.1406" y2="423.1406"/><line style="stroke:#181818;stroke-width:1;" x1="233.5527" x2="160.231" y1="423.1406" y2="423.1406"/><polygon fill="#181818" points="170.231,419.1406,160.231,423.1406,170.231,427.1406,166.231,423.1406" style="stroke:#181818;stroke-width:1;"/><line style="stroke:#181818;stroke-width:1;" x1="148.231" x2="148.231" y1="317.1719" y2="337.1719"/><polygon fill="#181818" points="144.231,327.1719,148.231,337.1719,152.231,327.1719,148.231,331.1719" style="stroke:#181818;stroke-width:1;"/><line style="stroke:#181818;stroke-width:1;" x1="148.231" x2="148.231" y1="435.1406" y2="455.1406"/><polygon fill="#181818" points="144.231,445.1406,148.231,455.1406,152.231,445.1406,148.231,449.1406" style="stroke:#181818;stroke-width:1;"/><line style="stroke:#181818;stroke-width:1;" x1="148.231" x2="148.231" y1="489.1094" y2="509.1094"/><polygon fill="#181818" points="144.231,499.1094,148.231,509.1094,152.231,499.1094,148.231,503.1094" style="stroke:#181818;stroke-width:1;"/><line style="stroke:#181818;stroke-width:1;" x1="457.4531" x2="457.4531" y1="263.2031" y2="283.2031"/><polygon fill="#181818" points="453.4531,273.2031,457.4531,283.2031,461.4531,273.2031,457.4531,277.2031" style="stroke:#181818;stroke-width:1;"/><line style="stroke:#181818;stroke-width:1;" x1="457.4531" x2="457.4531" y1="317.1719" y2="337.1719"/><polygon fill="#181818" points="453.4531,327.1719,457.4531,337.1719,461.4531,327.1719,457.4531,331.1719" style="stroke:#181818;stroke-width:1;"/><line style="stroke:#181818;stroke-width:1;" x1="242.137" x2="148.231" y1="207.2344" y2="207.2344"/><line style="stroke:#181818;stroke-width:1;" x1="148.231" x2="148.231" y1="207.2344" y2="229.2344"/><polygon fill="#181818" points="144.231,219.2344,148.231,229.2344,152.231,219.2344,148.231,223.2344" style="stroke:#181818;stroke-width:1;"/><line style="stroke:#181818;stroke-width:1;" x1="363.5471" x2="457.4531" y1="207.2344" y2="207.2344"/><line style="stroke:#181818;stroke-width:1;" x1="457.4531" x2="457.4531" y1="207.2344" y2="229.2344"/><polygon fill="#181818" points="453.4531,219.2344,457.4531,229.2344,461.4531,219.2344,457.4531,223.2344" style="stroke:#181818;stroke-width:1;"/><line style="stroke:#181818;stroke-width:1;" x1="302.842" x2="302.842" y1="175.2344" y2="195.2344"/><polygon fill="#181818" points="298.842,185.2344,302.842,195.2344,306.842,185.2344,302.842,189.2344" style="stroke:#181818;stroke-width:1;"/><!--SRC=[RP31JiCm44Jl-OfHJ-c17sY5K4KvS6YGsXF79TxGfSOEzYQeVuyRruYe-6B9EpDlrYfg6PjMPHGzOolq7kWJTzZqVV0ZusNaO3qPxFbhuAXL5PL2kbRFBceOMlK1e_1tX2_IaANh9DhpPGR3Ic8Zo1by356bavPKl4iQwL0NsjNvi8GUsQ5-vRYiaCxgm5gcI0rqYBWl9SqwQnwFt9wGyYAJWiQ4f3VBUNh176RljvGfvSa5Rss238QTPZFRoAWR_qUset02HInAYVHfZP_GYwl96UboiyQdbSyb4xu3JIwoMHhLzzKSyl_6MtRok-zjQhfbdddfy0C0]--></g></svg>