<svg xmlns="http://www.w3.org/2000/svg" xmlns:xlink="http://www.w3.org/1999/xlink" contentStyleType="text/css" data-diagram-type="ACTIVITY" height="645px" preserveAspectRatio="none" style="width:757px;height:645px;background:#FFFFFF;" version="1.1" viewBox="0 0 757 645" width="757px" zoomAndPan="magnify"><title>Activity Diagram - Register for Course</title><defs/><g><g class="title" data-source-line="1"><text fill="#000000" font-family="sans-serif" font-size="14" font-weight="bold" lengthAdjust="spacing" textLength="301.1025" x="226.6178" y="32.9951">Activity Diagram - Register for Course</text></g><ellipse cx="424.9573" cy="57.2969" fill="#222222" rx="10" ry="10" style="stroke:#222222;stroke-width:1;"/><rect fill="#F1F1F1" height="33.9688" rx="12.5" ry="12.5" style="stroke:#181818;stroke-width:0.5;" width="217.0918" x="316.4114" y="87.2969"/><text fill="#000000" font-family="sans-serif" font-size="12" lengthAdjust="spacing" textLength="197.0918" x="326.4114" y="108.4355">Student selects course &amp; section</text><rect fill="#F1F1F1" height="33.9688" rx="12.5" ry="12.5" style="stroke:#181818;stroke-width:0.5;" width="173.2285" x="338.343" y="141.2656"/><text fill="#000000" font-family="sans-serif" font-size="12" lengthAdjust="spacing" textLength="153.2285" x="348.343" y="162.4043">Send registration request</text><rect fill="#F1F1F1" height="33.9688" rx="12.5" ry="12.5" style="stroke:#181818;stroke-width:0.5;" width="139.4609" x="355.2268" y="195.2344"/><text fill="#000000" font-family="sans-serif" font-size="12" lengthAdjust="spacing" textLength="119.4609" x="365.2268" y="216.373">Check prerequisites</text><polygon fill="#F1F1F1" points="373.4807,249.2031,476.4338,249.2031,488.4338,261.2031,476.4338,273.2031,373.4807,273.2031,361.4807,261.2031,373.4807,249.2031" style="stroke:#181818;stroke-width:0.5;"/><text fill="#000000" font-family="sans-serif" font-size="11" lengthAdjust="spacing" textLength="102.9531" x="373.4807" y="265.0112">Prerequisites met?</text><text fill="#000000" font-family="sans-serif" font-size="11" lengthAdjust="spacing" textLength="19.2178" x="342.2629" y="258.6089">Yes</text><text fill="#000000" font-family="sans-serif" font-size="11" lengthAdjust="spacing" textLength="14.9585" x="488.4338" y="258.6089">No</text><rect fill="#F1F1F1" height="33.9688" rx="12.5" ry="12.5" style="stroke:#181818;stroke-width:0.5;" width="155.4922" x="130.9946" y="283.2031"/><text fill="#000000" font-family="sans-serif" font-size="12" lengthAdjust="spacing" textLength="135.4922" x="140.9946" y="304.3418">Check seat availability</text><polygon fill="#F1F1F1" points="166.8462,337.1719,250.6353,337.1719,262.6353,349.1719,250.6353,361.1719,166.8462,361.1719,154.8462,349.1719,166.8462,337.1719" style="stroke:#181818;stroke-width:0.5;"/><text fill="#000000" font-family="sans-serif" font-size="11" lengthAdjust="spacing" textLength="83.7891" x="166.8462" y="352.98">Seat available?</text><text fill="#000000" font-family="sans-serif" font-size="11" lengthAdjust="spacing" textLength="19.2178" x="135.6284" y="346.5776">Yes</text><text fill="#000000" font-family="sans-serif" font-size="11" lengthAdjust="spacing" textLength="14.9585" x="262.6353" y="346.5776">No</text><rect fill="#F1F1F1" height="33.9688" rx="12.5" ry="12.5" style="stroke:#181818;stroke-width:0.5;" width="119.6328" x="16.2354" y="371.1719"/><text fill="#000000" font-family="sans-serif" font-size="12" lengthAdjust="spacing" textLength="99.6328" x="26.2354" y="392.3105">Register student</text><rect fill="#F1F1F1" height="33.9688" rx="12.5" ry="12.5" style="stroke:#181818;stroke-width:0.5;" width="130.1035" x="11" y="440.1406"/><text fill="#000000" font-family="sans-serif" font-size="12" lengthAdjust="spacing" textLength="110.1035" x="21" y="461.2793">Send confirmation</text><ellipse cx="76.0518" cy="520.1094" fill="none" rx="11" ry="11" style="stroke:#222222;stroke-width:1;"/><ellipse cx="76.0518" cy="520.1094" fill="#222222" rx="6" ry="6" style="stroke:#222222;stroke-width:1;"/><rect fill="#F1F1F1" height="33.9688" rx="12.5" ry="12.5" style="stroke:#181818;stroke-width:0.5;" width="138.6172" x="272.1211" y="371.1719"/><text fill="#000000" font-family="sans-serif" font-size="12" lengthAdjust="spacing" textLength="118.6172" x="282.1211" y="392.3105">Offer waitlist option</text><polygon fill="#F1F1F1" points="307.1299,440.1406,375.7295,440.1406,387.7295,452.1406,375.7295,464.1406,307.1299,464.1406,295.1299,452.1406,307.1299,440.1406" style="stroke:#181818;stroke-width:0.5;"/><text fill="#000000" font-family="sans-serif" font-size="11" lengthAdjust="spacing" textLength="68.5996" x="307.1299" y="455.9487">Join waitlist?</text><text fill="#000000" font-family="sans-serif" font-size="11" lengthAdjust="spacing" textLength="19.2178" x="275.9121" y="449.5464">Yes</text><text fill="#000000" font-family="sans-serif" font-size="11" lengthAdjust="spacing" textLength="14.9585" x="387.7295" y="449.5464">No</text><rect fill="#F1F1F1" height="33.9688" rx="12.5" ry="12.5" style="stroke:#181818;stroke-width:0.5;" width="105.9512" x="202.2109" y="474.1406"/><text fill="#000000" font-family="sans-serif" font-size="12" lengthAdjust="spacing" textLength="85.9512" x="212.2109" y="495.2793">Add to waitlist</text><rect fill="#F1F1F1" height="33.9688" rx="12.5" ry="12.5" style="stroke:#181818;stroke-width:0.5;" width="168.166" x="171.1035" y="543.1094"/><text fill="#000000" font-family="sans-serif" font-size="12" lengthAdjust="spacing" textLength="148.166" x="181.1035" y="564.248">Send waitlist notification</text><ellipse cx="255.1865" cy="623.0781" fill="none" rx="11" ry="11" style="stroke:#222222;stroke-width:1;"/><ellipse cx="255.1865" cy="623.0781" fill="#222222" rx="6" ry="6" style="stroke:#222222;stroke-width:1;"/><rect fill="#F1F1F1" height="33.9688" rx="12.5" ry="12.5" style="stroke:#181818;stroke-width:0.5;" width="136.8066" x="359.2695" y="474.1406"/><text fill="#000000" font-family="sans-serif" font-size="12" lengthAdjust="spacing" textLength="116.8066" x="369.2695" y="495.2793">Show "Section Full"</text><ellipse cx="427.6729" cy="554.1094" fill="none" rx="11" ry="11" style="stroke:#222222;stroke-width:1;"/><ellipse cx="427.6729" cy="554.1094" fill="#222222" rx="6" ry="6" style="stroke:#222222;stroke-width:1;"/><rect fill="#F1F1F1" height="33.9688" rx="12.5" ry="12.5" style="stroke:#181818;stroke-width:0.5;" width="162.0137" x="560.167" y="283.2031"/><text fill="#000000" font-family="sans-serif" font-size="12" lengthAdjust="spacing" textLength="142.0137" x="570.167" y="304.3418">Show prerequisite error</text><rect fill="#F1F1F1" height="33.9688" rx="12.5" ry="12.5" style="stroke:#181818;stroke-width:0.5;" width="210.1953" x="536.0762" y="337.1719"/><text fill="#000000" font-family="sans-serif" font-size="12" lengthAdjust="spacing" textLength="190.1953" x="546.0762" y="358.3105">Offer override/overload request</text><rect fill="#F1F1F1" height="33.9688" rx="12.5" ry="12.5" style="stroke:#181818;stroke-width:0.5;" width="109.8301" x="586.2588" y="454.543"/><text fill="#000000" font-family="sans-serif" font-size="12" lengthAdjust="spacing" textLength="89.8301" x="596.2588" y="475.6816">Create request</text><rect fill="#F1F1F1" height="33.9688" rx="12.5" ry="12.5" style="stroke:#181818;stroke-width:0.5;" width="117.5117" x="582.418" y="523.5117"/><text fill="#000000" font-family="sans-serif" font-size="12" lengthAdjust="spacing" textLength="97.5117" x="592.418" y="544.6504">Notify instructor</text><ellipse cx="641.1738" cy="603.4805" fill="none" rx="11" ry="11" style="stroke:#222222;stroke-width:1;"/><ellipse cx="641.1738" cy="603.4805" fill="#222222" rx="6" ry="6" style="stroke:#222222;stroke-width:1;"/><polygon fill="#F1F1F1" points="595.968,406.1406,686.3796,406.1406,698.3796,418.1406,686.3796,430.1406,595.968,430.1406,583.968,418.1406,595.968,406.1406" style="stroke:#181818;stroke-width:0.5;"/><text fill="#000000" font-family="sans-serif" font-size="11" lengthAdjust="spacing" textLength="19.2178" x="645.1738" y="440.3511">Yes</text><text fill="#000000" font-family="sans-serif" font-size="11" lengthAdjust="spacing" textLength="90.4116" x="595.968" y="421.9487">Submit request?</text><text fill="#000000" font-family="sans-serif" font-size="11" lengthAdjust="spacing" textLength="14.9585" x="698.3796" y="415.5464">No</text><ellipse cx="735.3381" cy="418.1406" fill="none" rx="11" ry="11" style="stroke:#222222;stroke-width:1;"/><ellipse cx="735.3381" cy="418.1406" fill="#222222" rx="6" ry="6" style="stroke:#222222;stroke-width:1;"/><line style="stroke:#181818;stroke-width:1;" x1="424.9573" x2="424.9573" y1="67.2969" y2="87.2969"/><polygon fill="#181818" points="420.9573,77.2969,424.9573,87.2969,428.9573,77.2969,424.9573,81.2969" style="stroke:#181818;stroke-width:1;"/><line style="stroke:#181818;stroke-width:1;" x1="424.9573" x2="424.9573" y1="121.2656" y2="141.2656"/><polygon fill="#181818" points="420.9573,131.2656,424.9573,141.2656,428.9573,131.2656,424.9573,135.2656" style="stroke:#181818;stroke-width:1;"/><line style="stroke:#181818;stroke-width:1;" x1="424.9573" x2="424.9573" y1="175.2344" y2="195.2344"/><polygon fill="#181818" points="420.9573,185.2344,424.9573,195.2344,428.9573,185.2344,424.9573,189.2344" style="stroke:#181818;stroke-width:1;"/><line style="stroke:#181818;stroke-width:1;" x1="76.0518" x2="76.0518" y1="405.1406" y2="440.1406"/><polygon fill="#181818" points="72.0518,430.1406,76.0518,440.1406,80.0518,430.1406,76.0518,434.1406" style="stroke:#181818;stroke-width:1;"/><line style="stroke:#181818;stroke-width:1;" x1="76.0518" x2="76.0518" y1="474.1094" y2="509.1094"/><polygon fill="#181818" points="72.0518,499.1094,76.0518,509.1094,80.0518,499.1094,76.0518,503.1094" style="stroke:#181818;stroke-width:1;"/><line style="stroke:#181818;stroke-width:1;" x1="255.1865" x2="255.1865" y1="508.1094" y2="543.1094"/><polygon fill="#181818" points="251.1865,533.1094,255.1865,543.1094,259.1865,533.1094,255.1865,537.1094" style="stroke:#181818;stroke-width:1;"/><line style="stroke:#181818;stroke-width:1;" x1="255.1865" x2="255.1865" y1="577.0781" y2="612.0781"/><polygon fill="#181818" points="251.1865,602.0781,255.1865,612.0781,259.1865,602.0781,255.1865,606.0781" style="stroke:#181818;stroke-width:1;"/><line style="stroke:#181818;stroke-width:1;" x1="427.6729" x2="427.6729" y1="508.1094" y2="543.1094"/><polygon fill="#181818" points="423.6729,533.1094,427.6729,543.1094,431.6729,533.1094,427.6729,537.1094" style="stroke:#181818;stroke-width:1;"/><line style="stroke:#181818;stroke-width:1;" x1="295.1299" x2="255.1865" y1="452.1406" y2="452.1406"/><line style="stroke:#181818;stroke-width:1;" x1="255.1865" x2="255.1865" y1="452.1406" y2="474.1406"/><polygon fill="#181818" points="251.1865,464.1406,255.1865,474.1406,259.1865,464.1406,255.1865,468.1406" style="stroke:#181818;stroke-width:1;"/><line style="stroke:#181818;stroke-width:1;" x1="387.7295" x2="427.6729" y1="452.1406" y2="452.1406"/><line style="stroke:#181818;stroke-width:1;" x1="427.6729" x2="427.6729" y1="452.1406" y2="474.1406"/><polygon fill="#181818" points="423.6729,464.1406,427.6729,474.1406,431.6729,464.1406,427.6729,468.1406" style="stroke:#181818;stroke-width:1;"/><line style="stroke:#181818;stroke-width:1;" x1="341.4297" x2="341.4297" y1="405.1406" y2="440.1406"/><polygon fill="#181818" points="337.4297,430.1406,341.4297,440.1406,345.4297,430.1406,341.4297,434.1406" style="stroke:#181818;stroke-width:1;"/><line style="stroke:#181818;stroke-width:1;" x1="154.8462" x2="76.0518" y1="349.1719" y2="349.1719"/><line style="stroke:#181818;stroke-width:1;" x1="76.0518" x2="76.0518" y1="349.1719" y2="371.1719"/><polygon fill="#181818" points="72.0518,361.1719,76.0518,371.1719,80.0518,361.1719,76.0518,365.1719" style="stroke:#181818;stroke-width:1;"/><line style="stroke:#181818;stroke-width:1;" x1="262.6353" x2="341.4297" y1="349.1719" y2="349.1719"/><line style="stroke:#181818;stroke-width:1;" x1="341.4297" x2="341.4297" y1="349.1719" y2="371.1719"/><polygon fill="#181818" points="337.4297,361.1719,341.4297,371.1719,345.4297,361.1719,341.4297,365.1719" style="stroke:#181818;stroke-width:1;"/><line style="stroke:#181818;stroke-width:1;" x1="208.7407" x2="208.7407" y1="317.1719" y2="337.1719"/><polygon fill="#181818" points="204.7407,327.1719,208.7407,337.1719,212.7407,327.1719,208.7407,331.1719" style="stroke:#181818;stroke-width:1;"/><line style="stroke:#181818;stroke-width:1;" x1="641.1738" x2="641.1738" y1="317.1719" y2="337.1719"/><polygon fill="#181818" points="637.1738,327.1719,641.1738,337.1719,645.1738,327.1719,641.1738,331.1719" style="stroke:#181818;stroke-width:1;"/><line style="stroke:#181818;stroke-width:1;" x1="641.1738" x2="641.1738" y1="488.5117" y2="523.5117"/><polygon fill="#181818" points="637.1738,513.5117,641.1738,523.5117,645.1738,513.5117,641.1738,517.5117" style="stroke:#181818;stroke-width:1;"/><line style="stroke:#181818;stroke-width:1;" x1="641.1738" x2="641.1738" y1="557.4805" y2="592.4805"/><polygon fill="#181818" points="637.1738,582.4805,641.1738,592.4805,645.1738,582.4805,641.1738,586.4805" style="stroke:#181818;stroke-width:1;"/><line style="stroke:#181818;stroke-width:1;" x1="641.1738" x2="641.1738" y1="430.1406" y2="454.543"/><polygon fill="#181818" points="637.1738,444.543,641.1738,454.543,645.1738,444.543,641.1738,448.543" style="stroke:#181818;stroke-width:1;"/><line style="stroke:#181818;stroke-width:1;" x1="698.3796" x2="724.3381" y1="418.1406" y2="418.1406"/><polygon fill="#181818" points="714.3381,414.1406,724.3381,418.1406,714.3381,422.1406,718.3381,418.1406" style="stroke:#181818;stroke-width:1;"/><line style="stroke:#181818;stroke-width:1;" x1="641.1738" x2="641.1738" y1="371.1406" y2="406.1406"/><polygon fill="#181818" points="637.1738,396.1406,641.1738,406.1406,645.1738,396.1406,641.1738,400.1406" style="stroke:#181818;stroke-width:1;"/><line style="stroke:#181818;stroke-width:1;" x1="361.4807" x2="208.7407" y1="261.2031" y2="261.2031"/><line style="stroke:#181818;stroke-width:1;" x1="208.7407" x2="208.7407" y1="261.2031" y2="283.2031"/><polygon fill="#181818" points="204.7407,273.2031,208.7407,283.2031,212.7407,273.2031,208.7407,277.2031" style="stroke:#181818;stroke-width:1;"/><line style="stroke:#181818;stroke-width:1;" x1="488.4338" x2="641.1738" y1="261.2031" y2="261.2031"/><line style="stroke:#181818;stroke-width:1;" x1="641.1738" x2="641.1738" y1="261.2031" y2="283.2031"/><polygon fill="#181818" points="637.1738,273.2031,641.1738,283.2031,645.1738,273.2031,641.1738,277.2031" style="stroke:#181818;stroke-width:1;"/><line style="stroke:#181818;stroke-width:1;" x1="424.9573" x2="424.9573" y1="229.2031" y2="249.2031"/><polygon fill="#181818" points="420.9573,239.2031,424.9573,249.2031,428.9573,239.2031,424.9573,243.2031" style="stroke:#181818;stroke-width:1;"/><!--SRC=[XP8zJmCn38Rt_0gh0se7nCuDg2fYO2Y8JenfpcajSicH-5hrtvEFzZwWm0sdnA_zv7KS9ZO8IyLq83x18ycTbmtSmXlkA31wqCx3odK-e121fMSXxZVSrMWP0XfK741b7MvY89AShM8AsXfyXdYPOd7psM7WAjQlzgW-eFMOOXI8CLI2DCnVno5ea1yMm7kqC7_7i10GltDnGCaW3vACt9A9tgki9iXc91dyISYKlhzGUga6ALjNpchoZIpjNBJ0hiqRDB7V-TgDY2zQHznHnXkDP73jj3GvUtPa-uphnZ9gMTV0hi-ifchsrvzZ7PCczStenEnrmuMrTqUORShOuAapPlONnDQanR2QGWjiF5L0xvqlmFFzk4ECKOrtQM6Sh8TtqS-lspR4b_WlyrlvE6MS5cTXdUxZ16JZm-iKNux_Ptg3L1fB_oy0]--></g></svg>