<svg xmlns="http://www.w3.org/2000/svg" xmlns:xlink="http://www.w3.org/1999/xlink" contentStyleType="text/css" data-diagram-type="ACTIVITY" height="478px" preserveAspectRatio="none" style="width:459px;height:478px;background:#FFFFFF;" version="1.1" viewBox="0 0 459 478" width="459px" zoomAndPan="magnify"><title>Activity Diagram - Create New Course</title><defs/><g><g class="title" data-source-line="1"><text fill="#000000" font-family="sans-serif" font-size="14" font-weight="bold" lengthAdjust="spacing" textLength="298.4229" x="78.8521" y="32.9951">Activity Diagram - Create New Course</text></g><ellipse cx="216.3872" cy="57.2969" fill="#222222" rx="10" ry="10" style="stroke:#222222;stroke-width:1;"/><rect fill="#F1F1F1" height="33.9688" rx="12.5" ry="12.5" style="stroke:#181818;stroke-width:0.5;" width="231.8105" x="100.4819" y="87.2969"/><text fill="#000000" font-family="sans-serif" font-size="12" lengthAdjust="spacing" textLength="211.8105" x="110.4819" y="108.4355">Administrator enters course details</text><rect fill="#F1F1F1" height="33.9688" rx="12.5" ry="12.5" style="stroke:#181818;stroke-width:0.5;" width="103.9707" x="164.4019" y="141.2656"/><text fill="#000000" font-family="sans-serif" font-size="12" lengthAdjust="spacing" textLength="83.9707" x="174.4019" y="162.4043">Validate input</text><polygon fill="#F1F1F1" points="154.0557,195.2344,278.7188,195.2344,290.7188,207.2344,278.7188,219.2344,154.0557,219.2344,142.0557,207.2344,154.0557,195.2344" style="stroke:#181818;stroke-width:0.5;"/><text fill="#000000" font-family="sans-serif" font-size="11" lengthAdjust="spacing" textLength="124.6631" x="154.0557" y="211.0425">Course already exists?</text><text fill="#000000" font-family="sans-serif" font-size="11" lengthAdjust="spacing" textLength="19.2178" x="122.8379" y="204.6401">Yes</text><text fill="#000000" font-family="sans-serif" font-size="11" lengthAdjust="spacing" textLength="14.9585" x="290.7188" y="204.6401">No</text><rect fill="#F1F1F1" height="33.9688" rx="12.5" ry="12.5" style="stroke:#181818;stroke-width:0.5;" width="182.2109" x="11" y="229.2344"/><text fill="#000000" font-family="sans-serif" font-size="12" lengthAdjust="spacing" textLength="162.2109" x="21" y="250.373">Show error or allow editing</text><ellipse cx="102.1055" cy="294.2031" fill="none" rx="11" ry="11" style="stroke:#222222;stroke-width:1;"/><ellipse cx="102.1055" cy="294.2031" fill="#222222" rx="6" ry="6" style="stroke:#222222;stroke-width:1;"/><rect fill="#F1F1F1" height="33.9688" rx="12.5" ry="12.5" style="stroke:#181818;stroke-width:0.5;" width="166.666" x="247.3359" y="229.2344"/><text fill="#000000" font-family="sans-serif" font-size="12" lengthAdjust="spacing" textLength="146.666" x="257.3359" y="250.373">Save course information</text><rect fill="#F1F1F1" height="33.9688" rx="12.5" ry="12.5" style="stroke:#181818;stroke-width:0.5;" width="234.916" x="213.2109" y="283.2031"/><text fill="#000000" font-family="sans-serif" font-size="12" lengthAdjust="spacing" textLength="214.916" x="223.2109" y="304.3418">Administrator enters section details</text><rect fill="#F1F1F1" height="33.9688" rx="12.5" ry="12.5" style="stroke:#181818;stroke-width:0.5;" width="127.332" x="267.0029" y="337.1719"/><text fill="#000000" font-family="sans-serif" font-size="12" lengthAdjust="spacing" textLength="107.332" x="277.0029" y="358.3105">Save section data</text><rect fill="#F1F1F1" height="33.9688" rx="12.5" ry="12.5" style="stroke:#181818;stroke-width:0.5;" width="117.5117" x="271.9131" y="391.1406"/><text fill="#000000" font-family="sans-serif" font-size="12" lengthAdjust="spacing" textLength="97.5117" x="281.9131" y="412.2793">Notify instructor</text><ellipse cx="330.6689" cy="456.1094" fill="none" rx="11" ry="11" style="stroke:#222222;stroke-width:1;"/><ellipse cx="330.6689" cy="456.1094" fill="#222222" rx="6" ry="6" style="stroke:#222222;stroke-width:1;"/><line style="stroke:#181818;stroke-width:1;" x1="216.3872" x2="216.3872" y1="67.2969" y2="87.2969"/><polygon fill="#181818" points="212.3872,77.2969,216.3872,87.2969,220.3872,77.2969,216.3872,81.2969" style="stroke:#181818;stroke-width:1;"/><line style="stroke:#181818;stroke-width:1;" x1="216.3872" x2="216.3872" y1="121.2656" y2="141.2656"/><polygon fill="#181818" points="212.3872,131.2656,216.3872,141.2656,220.3872,131.2656,216.3872,135.2656" style="stroke:#181818;stroke-width:1;"/><line style="stroke:#181818;stroke-width:1;" x1="102.1055" x2="102.1055" y1="263.2031" y2="283.2031"/><polygon fill="#181818" points="98.1055,273.2031,102.1055,283.2031,106.1055,273.2031,102.1055,277.2031" style="stroke:#181818;stroke-width:1;"/><line style="stroke:#181818;stroke-width:1;" x1="330.6689" x2="330.6689" y1="263.2031" y2="283.2031"/><polygon fill="#181818" points="326.6689,273.2031,330.6689,283.2031,334.6689,273.2031,330.6689,277.2031" style="stroke:#181818;stroke-width:1;"/><line style="stroke:#181818;stroke-width:1;" x1="330.6689" x2="330.6689" y1="317.1719" y2="337.1719"/><polygon fill="#181818" points="326.6689,327.1719,330.6689,337.1719,334.6689,327.1719,330.6689,331.1719" style="stroke:#181818;stroke-width:1;"/><line style="stroke:#181818;stroke-width:1;" x1="330.6689" x2="330.6689" y1="371.1406" y2="391.1406"/><polygon fill="#181818" points="326.6689,381.1406,330.6689,391.1406,334.6689,381.1406,330.6689,385.1406" style="stroke:#181818;stroke-width:1;"/><line style="stroke:#181818;stroke-width:1;" x1="330.6689" x2="330.6689" y1="425.1094" y2="445.1094"/><polygon fill="#181818" points="326.6689,435.1094,330.6689,445.1094,334.6689,435.1094,330.6689,439.1094" style="stroke:#181818;stroke-width:1;"/><line style="stroke:#181818;stroke-width:1;" x1="142.0557" x2="102.1055" y1="207.2344" y2="207.2344"/><line style="stroke:#181818;stroke-width:1;" x1="102.1055" x2="102.1055" y1="207.2344" y2="229.2344"/><polygon fill="#181818" points="98.1055,219.2344,102.1055,229.2344,106.1055,219.2344,102.1055,223.2344" style="stroke:#181818;stroke-width:1;"/><line style="stroke:#181818;stroke-width:1;" x1="290.7188" x2="330.6689" y1="207.2344" y2="207.2344"/><line style="stroke:#181818;stroke-width:1;" x1="330.6689" x2="330.6689" y1="207.2344" y2="229.2344"/><polygon fill="#181818" points="326.6689,219.2344,330.6689,229.2344,334.6689,219.2344,330.6689,223.2344" style="stroke:#181818;stroke-width:1;"/><line style="stroke:#181818;stroke-width:1;" x1="216.3872" x2="216.3872" y1="175.2344" y2="195.2344"/><polygon fill="#181818" points="212.3872,185.2344,216.3872,195.2344,220.3872,185.2344,216.3872,189.2344" style="stroke:#181818;stroke-width:1;"/><!--SRC=[ROwnRW9134Jx_GgNHv4VW292fBucKgIKrgqFBEtj8diESdyV7uIG8fORZyVF0qKHsW_GYsAXD-MZyKGlT31X2FLofKERpIKb1njIskxpf5KTncX6KY7cDDnCb0MinNTX- -2YUMLeFSy8HKVgxYpY4lYya7m5nrytX9DKwZx5DucYjk-dTYKnYmVHNCewPeNMu-xcSBHpaXAihc-F8xx88uZMiTd4q5Rl1__7TXbMopFt4_IxOl2FtZVek0GxAFCGcBzPQjRn6m00]--></g></svg>