<svg xmlns="http://www.w3.org/2000/svg" xmlns:xlink="http://www.w3.org/1999/xlink" contentStyleType="text/css" data-diagram-type="SEQUENCE" height="452px" preserveAspectRatio="none" style="width:841px;height:452px;background:#FFFFFF;" version="1.1" viewBox="0 0 841 452" width="841px" zoomAndPan="magnify"><title>Approve Overload Request</title><defs/><g><text fill="#000000" font-family="sans-serif" font-size="14" font-weight="bold" lengthAdjust="spacing" textLength="211.8662" x="314.0232" y="27.9951">Approve Overload Request</text><g><title>Instructor</title><rect fill="#000000" fill-opacity="0.00000" height="253.0625" width="8" x="37.9609" y="118.5938"/><line style="stroke:#181818;stroke-width:0.5;stroke-dasharray:5,5;" x1="41" x2="41" y1="118.5938" y2="371.6563"/></g><g><title>System</title><rect fill="#000000" fill-opacity="0.00000" height="253.0625" width="8" x="207.8364" y="118.5938"/><line style="stroke:#181818;stroke-width:0.5;stroke-dasharray:5,5;" x1="211.7334" x2="211.7334" y1="118.5938" y2="371.6563"/></g><g><title>DB</title><rect fill="#000000" fill-opacity="0.00000" height="253.0625" width="8" x="458.6255" y="118.5938"/><line style="stroke:#181818;stroke-width:0.5;stroke-dasharray:5,5;" x1="462.6255" x2="462.6255" y1="118.5938" y2="371.6563"/></g><g><title>Notification</title><rect fill="#000000" fill-opacity="0.00000" height="253.0625" width="8" x="533.79" y="118.5938"/><line style="stroke:#181818;stroke-width:0.5;stroke-dasharray:5,5;" x1="537.6255" x2="537.6255" y1="118.5938" y2="371.6563"/></g><g><title>Student</title><rect fill="#000000" fill-opacity="0.00000" height="253.0625" width="8" x="797.3569" y="118.5938"/><line style="stroke:#181818;stroke-width:0.5;stroke-dasharray:5,5;" x1="800.8013" x2="800.8013" y1="118.5938" y2="371.6563"/></g><g class="participant participant-head" data-participant="Instructor"><text fill="#000000" font-family="sans-serif" font-size="14" lengthAdjust="spacing" textLength="67.9219" x="5" y="115.292">Instructor</text><ellipse cx="41.9609" cy="50.7969" fill="#E2E2F0" rx="8" ry="8" style="stroke:#181818;stroke-width:0.5;"/><path d="M41.9609,58.7969 L41.9609,85.7969 M28.9609,66.7969 L54.9609,66.7969 M41.9609,85.7969 L28.9609,100.7969 M41.9609,85.7969 L54.9609,100.7969" fill="none" style="stroke:#181818;stroke-width:0.5;"/></g><g class="participant participant-tail" data-participant="Instructor"><text fill="#000000" font-family="sans-serif" font-size="14" lengthAdjust="spacing" textLength="67.9219" x="5" y="383.6514">Instructor</text><ellipse cx="41.9609" cy="395.4531" fill="#E2E2F0" rx="8" ry="8" style="stroke:#181818;stroke-width:0.5;"/><path d="M41.9609,403.4531 L41.9609,430.4531 M28.9609,411.4531 L54.9609,411.4531 M41.9609,430.4531 L28.9609,445.4531 M41.9609,430.4531 L54.9609,445.4531" fill="none" style="stroke:#181818;stroke-width:0.5;"/></g><g class="participant participant-head" data-participant="SYS"><rect fill="#E2E2F0" height="30.2969" rx="2.5" ry="2.5" style="stroke:#181818;stroke-width:0.5;" width="66.2061" x="178.7334" y="87.2969"/><text fill="#000000" font-family="sans-serif" font-size="14" lengthAdjust="spacing" textLength="52.2061" x="185.7334" y="107.292">System</text></g><g class="participant participant-tail" data-participant="SYS"><rect fill="#E2E2F0" height="30.2969" rx="2.5" ry="2.5" style="stroke:#181818;stroke-width:0.5;" width="66.2061" x="178.7334" y="370.6563"/><text fill="#000000" font-family="sans-serif" font-size="14" lengthAdjust="spacing" textLength="52.2061" x="185.7334" y="390.6514">System</text></g><g class="participant participant-head" data-participant="DB"><text fill="#000000" font-family="sans-serif" font-size="14" lengthAdjust="spacing" textLength="20.3848" x="449.4331" y="115.292">DB</text><path d="M444.6255,66.2969 C444.6255,56.2969 462.6255,56.2969 462.6255,56.2969 C462.6255,56.2969 480.6255,56.2969 480.6255,66.2969 L480.6255,92.2969 C480.6255,102.2969 462.6255,102.2969 462.6255,102.2969 C462.6255,102.2969 444.6255,102.2969 444.6255,92.2969 L444.6255,66.2969" fill="#E2E2F0" style="stroke:#181818;stroke-width:0.5;"/><path d="M444.6255,66.2969 C444.6255,76.2969 462.6255,76.2969 462.6255,76.2969 C462.6255,76.2969 480.6255,76.2969 480.6255,66.2969" fill="none" style="stroke:#181818;stroke-width:0.5;"/></g><g class="participant participant-tail" data-participant="DB"><text fill="#000000" font-family="sans-serif" font-size="14" lengthAdjust="spacing" textLength="20.3848" x="449.4331" y="383.6514">DB</text><path d="M444.6255,396.9531 C444.6255,386.9531 462.6255,386.9531 462.6255,386.9531 C462.6255,386.9531 480.6255,386.9531 480.6255,396.9531 L480.6255,422.9531 C480.6255,432.9531 462.6255,432.9531 462.6255,432.9531 C462.6255,432.9531 444.6255,432.9531 444.6255,422.9531 L444.6255,396.9531" fill="#E2E2F0" style="stroke:#181818;stroke-width:0.5;"/><path d="M444.6255,396.9531 C444.6255,406.9531 462.6255,406.9531 462.6255,406.9531 C462.6255,406.9531 480.6255,406.9531 480.6255,396.9531" fill="none" style="stroke:#181818;stroke-width:0.5;"/></g><g class="participant participant-head" data-participant="NOTIF"><rect fill="#E2E2F0" height="30.2969" rx="2.5" ry="2.5" style="stroke:#181818;stroke-width:0.5;" width="94.3291" x="490.6255" y="87.2969"/><text fill="#000000" font-family="sans-serif" font-size="14" lengthAdjust="spacing" textLength="80.3291" x="497.6255" y="107.292">Notification</text></g><g class="participant participant-tail" data-participant="NOTIF"><rect fill="#E2E2F0" height="30.2969" rx="2.5" ry="2.5" style="stroke:#181818;stroke-width:0.5;" width="94.3291" x="490.6255" y="370.6563"/><text fill="#000000" font-family="sans-serif" font-size="14" lengthAdjust="spacing" textLength="80.3291" x="497.6255" y="390.6514">Notification</text></g><g class="participant participant-head" data-participant="Student"><rect fill="#E2E2F0" height="30.2969" rx="2.5" ry="2.5" style="stroke:#181818;stroke-width:0.5;" width="69.1113" x="766.8013" y="87.2969"/><text fill="#000000" font-family="sans-serif" font-size="14" lengthAdjust="spacing" textLength="55.1113" x="773.8013" y="107.292">Student</text></g><g class="participant participant-tail" data-participant="Student"><rect fill="#E2E2F0" height="30.2969" rx="2.5" ry="2.5" style="stroke:#181818;stroke-width:0.5;" width="69.1113" x="766.8013" y="370.6563"/><text fill="#000000" font-family="sans-serif" font-size="14" lengthAdjust="spacing" textLength="55.1113" x="773.8013" y="390.6514">Student</text></g><g class="message" data-participant-1="Instructor" data-participant-2="SYS"><polygon fill="#181818" points="199.8364,145.7266,209.8364,149.7266,199.8364,153.7266,203.8364,149.7266" style="stroke:#181818;stroke-width:1;"/><line style="stroke:#181818;stroke-width:1;" x1="41.9609" x2="205.8364" y1="149.7266" y2="149.7266"/><text fill="#000000" font-family="sans-serif" font-size="13" lengthAdjust="spacing" textLength="145.8755" x="48.9609" y="144.6606">View overload request</text></g><g class="message" data-participant-1="SYS" data-participant-2="DB"><polygon fill="#181818" points="450.6255,174.8594,460.6255,178.8594,450.6255,182.8594,454.6255,178.8594" style="stroke:#181818;stroke-width:1;"/><line style="stroke:#181818;stroke-width:1;" x1="211.8364" x2="456.6255" y1="178.8594" y2="178.8594"/><text fill="#000000" font-family="sans-serif" font-size="13" lengthAdjust="spacing" textLength="118.3076" x="218.8364" y="173.7935">Fetch request info</text></g><g class="message" data-participant-1="DB" data-participant-2="SYS"><polygon fill="#181818" points="222.8364,203.9922,212.8364,207.9922,222.8364,211.9922,218.8364,207.9922" style="stroke:#181818;stroke-width:1;"/><line style="stroke:#181818;stroke-width:1;stroke-dasharray:2,2;" x1="216.8364" x2="461.6255" y1="207.9922" y2="207.9922"/><text fill="#000000" font-family="sans-serif" font-size="13" lengthAdjust="spacing" textLength="100.8325" x="228.8364" y="202.9263">Request details</text></g><g class="message" data-participant-1="Instructor" data-participant-2="SYS"><polygon fill="#181818" points="199.8364,233.125,209.8364,237.125,199.8364,241.125,203.8364,237.125" style="stroke:#181818;stroke-width:1;"/><line style="stroke:#181818;stroke-width:1;" x1="41.9609" x2="205.8364" y1="237.125" y2="237.125"/><text fill="#000000" font-family="sans-serif" font-size="13" lengthAdjust="spacing" textLength="108.2212" x="48.9609" y="232.0591">Approve request</text></g><g class="message" data-participant-1="SYS" data-participant-2="DB"><polygon fill="#181818" points="450.6255,262.2578,460.6255,266.2578,450.6255,270.2578,454.6255,266.2578" style="stroke:#181818;stroke-width:1;"/><line style="stroke:#181818;stroke-width:1;" x1="211.8364" x2="456.6255" y1="266.2578" y2="266.2578"/><text fill="#000000" font-family="sans-serif" font-size="13" lengthAdjust="spacing" textLength="226.7891" x="218.8364" y="261.1919">Update request status = Approved</text></g><g class="message" data-participant-1="DB" data-participant-2="SYS"><polygon fill="#181818" points="222.8364,291.3906,212.8364,295.3906,222.8364,299.3906,218.8364,295.3906" style="stroke:#181818;stroke-width:1;"/><line style="stroke:#181818;stroke-width:1;stroke-dasharray:2,2;" x1="216.8364" x2="461.6255" y1="295.3906" y2="295.3906"/><text fill="#000000" font-family="sans-serif" font-size="13" lengthAdjust="spacing" textLength="40.1616" x="228.8364" y="290.3247">Saved</text></g><g class="message" data-participant-1="SYS" data-participant-2="NOTIF"><polygon fill="#181818" points="525.79,320.5234,535.79,324.5234,525.79,328.5234,529.79,324.5234" style="stroke:#181818;stroke-width:1;"/><line style="stroke:#181818;stroke-width:1;" x1="211.8364" x2="531.79" y1="324.5234" y2="324.5234"/><text fill="#000000" font-family="sans-serif" font-size="13" lengthAdjust="spacing" textLength="92.4854" x="218.8364" y="319.4575">Notify student</text></g><g class="message" data-participant-1="NOTIF" data-participant-2="Student"><polygon fill="#181818" points="789.3569,349.6563,799.3569,353.6563,789.3569,357.6563,793.3569,353.6563" style="stroke:#181818;stroke-width:1;"/><line style="stroke:#181818;stroke-width:1;stroke-dasharray:2,2;" x1="537.79" x2="795.3569" y1="353.6563" y2="353.6563"/><text fill="#000000" font-family="sans-serif" font-size="13" lengthAdjust="spacing" textLength="239.5669" x="544.79" y="348.5903">Your overload request was approved</text></g><!--SRC=[RL3DYi8m4BxdAORU-mA2WgK8NXIik-1njXbne2OncIY-_QQnKKHluVkTBy8o42oTy_PAiBsI7ongsD4bKX2bi1VhOMs2-3W-bKCltBD38r1rzo1qhW03T8TEQHJymq1GjKq6s-PTlx72H-vHs9eis6ptwvLIhtoe5sCKpE2NwGQs7EIdWqOkITecALOa_QammEPeLSBhPy8q0ZG9yX2-rvJftmf-N5hqf208IWmmBnxzNjVX29M0l2oXUV8zUQCc8-e1PzC3IPA3ZVvZATpIz-1Kz0y0]--></g></svg>