<svg xmlns="http://www.w3.org/2000/svg" xmlns:xlink="http://www.w3.org/1999/xlink" contentStyleType="text/css" data-diagram-type="SEQUENCE" height="539px" preserveAspectRatio="none" style="width:913px;height:539px;background:#FFFFFF;" version="1.1" viewBox="0 0 913 539" width="913px" zoomAndPan="magnify"><title>Sequence Diagram - Grade Submission (Faculty)</title><defs/><g><text fill="#000000" font-family="sans-serif" font-size="14" font-weight="bold" lengthAdjust="spacing" textLength="382.3887" x="259.1294" y="27.9951">Sequence Diagram - Grade Submission (Faculty)</text><g><title>Faculty</title><rect fill="#000000" fill-opacity="0.00000" height="340.4609" width="8" x="29.4331" y="118.5938"/><line style="stroke:#181818;stroke-width:0.5;stroke-dasharray:5,5;" x1="33" x2="33" y1="118.5938" y2="459.0547"/></g><g><title>UI</title><rect fill="#000000" fill-opacity="0.00000" height="340.4609" width="8" x="246.6113" y="118.5938"/><line style="stroke:#181818;stroke-width:0.5;stroke-dasharray:5,5;" x1="250.1113" x2="250.1113" y1="118.5938" y2="459.0547"/></g><g><title>GradeController</title><rect fill="#000000" fill-opacity="0.00000" height="340.4609" width="8" x="567.7324" y="118.5938"/><line style="stroke:#181818;stroke-width:0.5;stroke-dasharray:5,5;" x1="570.8042" x2="570.8042" y1="118.5938" y2="459.0547"/></g><g><title>DB</title><rect fill="#000000" fill-opacity="0.00000" height="340.4609" width="8" x="874.6475" y="118.5938"/><line style="stroke:#181818;stroke-width:0.5;stroke-dasharray:5,5;" x1="878.6475" x2="878.6475" y1="118.5938" y2="459.0547"/></g><g class="participant participant-head" data-participant="Faculty"><text fill="#000000" font-family="sans-serif" font-size="14" lengthAdjust="spacing" textLength="50.8662" x="5" y="115.292">Faculty</text><ellipse cx="33.4331" cy="50.7969" fill="#E2E2F0" rx="8" ry="8" style="stroke:#181818;stroke-width:0.5;"/><path d="M33.4331,58.7969 L33.4331,85.7969 M20.4331,66.7969 L46.4331,66.7969 M33.4331,85.7969 L20.4331,100.7969 M33.4331,85.7969 L46.4331,100.7969" fill="none" style="stroke:#181818;stroke-width:0.5;"/></g><g class="participant participant-tail" data-participant="Faculty"><text fill="#000000" font-family="sans-serif" font-size="14" lengthAdjust="spacing" textLength="50.8662" x="5" y="471.0498">Faculty</text><ellipse cx="33.4331" cy="482.8516" fill="#E2E2F0" rx="8" ry="8" style="stroke:#181818;stroke-width:0.5;"/><path d="M33.4331,490.8516 L33.4331,517.8516 M20.4331,498.8516 L46.4331,498.8516 M33.4331,517.8516 L20.4331,532.8516 M33.4331,517.8516 L46.4331,532.8516" fill="none" style="stroke:#181818;stroke-width:0.5;"/></g><g class="participant participant-head" data-participant="UI"><text fill="#000000" font-family="sans-serif" font-size="14" lengthAdjust="spacing" textLength="14.376" x="240.4233" y="115.292">UI</text><path d="M230.1113,74.2969 L230.1113,98.2969 M230.1113,86.2969 L247.1113,86.2969" fill="none" style="stroke:#181818;stroke-width:0.5;"/><ellipse cx="259.1113" cy="86.2969" fill="#E2E2F0" rx="12" ry="12" style="stroke:#181818;stroke-width:0.5;"/></g><g class="participant participant-tail" data-participant="UI"><text fill="#000000" font-family="sans-serif" font-size="14" lengthAdjust="spacing" textLength="14.376" x="240.4233" y="471.0498">UI</text><path d="M230.1113,478.3516 L230.1113,502.3516 M230.1113,490.3516 L247.1113,490.3516" fill="none" style="stroke:#181818;stroke-width:0.5;"/><ellipse cx="259.1113" cy="490.3516" fill="#E2E2F0" rx="12" ry="12" style="stroke:#181818;stroke-width:0.5;"/></g><g class="participant participant-head" data-participant="GradeController"><text fill="#000000" font-family="sans-serif" font-size="14" lengthAdjust="spacing" textLength="111.8564" x="512.8042" y="115.292">GradeController</text><ellipse cx="571.7324" cy="86.2969" fill="#E2E2F0" rx="12" ry="12" style="stroke:#181818;stroke-width:0.5;"/><polygon fill="#181818" points="567.7324,74.2969,573.7324,69.2969,571.7324,74.2969,573.7324,79.2969,567.7324,74.2969" style="stroke:#181818;stroke-width:1;"/></g><g class="participant participant-tail" data-participant="GradeController"><text fill="#000000" font-family="sans-serif" font-size="14" lengthAdjust="spacing" textLength="111.8564" x="512.8042" y="471.0498">GradeController</text><ellipse cx="571.7324" cy="490.3516" fill="#E2E2F0" rx="12" ry="12" style="stroke:#181818;stroke-width:0.5;"/><polygon fill="#181818" points="567.7324,478.3516,573.7324,473.3516,571.7324,478.3516,573.7324,483.3516,567.7324,478.3516" style="stroke:#181818;stroke-width:1;"/></g><g class="participant participant-head" data-participant="DB"><text fill="#000000" font-family="sans-serif" font-size="14" lengthAdjust="spacing" textLength="20.3848" x="865.4551" y="115.292">DB</text><path d="M860.6475,66.2969 C860.6475,56.2969 878.6475,56.2969 878.6475,56.2969 C878.6475,56.2969 896.6475,56.2969 896.6475,66.2969 L896.6475,92.2969 C896.6475,102.2969 878.6475,102.2969 878.6475,102.2969 C878.6475,102.2969 860.6475,102.2969 860.6475,92.2969 L860.6475,66.2969" fill="#E2E2F0" style="stroke:#181818;stroke-width:0.5;"/><path d="M860.6475,66.2969 C860.6475,76.2969 878.6475,76.2969 878.6475,76.2969 C878.6475,76.2969 896.6475,76.2969 896.6475,66.2969" fill="none" style="stroke:#181818;stroke-width:0.5;"/></g><g class="participant participant-tail" data-participant="DB"><text fill="#000000" font-family="sans-serif" font-size="14" lengthAdjust="spacing" textLength="20.3848" x="865.4551" y="471.0498">DB</text><path d="M860.6475,484.3516 C860.6475,474.3516 878.6475,474.3516 878.6475,474.3516 C878.6475,474.3516 896.6475,474.3516 896.6475,484.3516 L896.6475,510.3516 C896.6475,520.3516 878.6475,520.3516 878.6475,520.3516 C878.6475,520.3516 860.6475,520.3516 860.6475,510.3516 L860.6475,484.3516" fill="#E2E2F0" style="stroke:#181818;stroke-width:0.5;"/><path d="M860.6475,484.3516 C860.6475,494.3516 878.6475,494.3516 878.6475,494.3516 C878.6475,494.3516 896.6475,494.3516 896.6475,484.3516" fill="none" style="stroke:#181818;stroke-width:0.5;"/></g><g class="message" data-participant-1="Faculty" data-participant-2="UI"><polygon fill="#181818" points="238.6113,145.7266,248.6113,149.7266,238.6113,153.7266,242.6113,149.7266" style="stroke:#181818;stroke-width:1;"/><line style="stroke:#181818;stroke-width:1;" x1="33.4331" x2="244.6113" y1="149.7266" y2="149.7266"/><text fill="#000000" font-family="sans-serif" font-size="13" lengthAdjust="spacing" textLength="193.1782" x="40.4331" y="144.6606">Open Grade Submission Page</text></g><g class="message" data-participant-1="UI" data-participant-2="GradeController"><polygon fill="#181818" points="559.7324,174.8594,569.7324,178.8594,559.7324,182.8594,563.7324,178.8594" style="stroke:#181818;stroke-width:1;"/><line style="stroke:#181818;stroke-width:1;" x1="250.6113" x2="565.7324" y1="178.8594" y2="178.8594"/><text fill="#000000" font-family="sans-serif" font-size="13" lengthAdjust="spacing" textLength="190.3662" x="257.6113" y="173.7935">getCourseStudents(courseId)</text></g><g class="message" data-participant-1="GradeController" data-participant-2="DB"><polygon fill="#181818" points="866.6475,203.9922,876.6475,207.9922,866.6475,211.9922,870.6475,207.9922" style="stroke:#181818;stroke-width:1;"/><line style="stroke:#181818;stroke-width:1;" x1="571.7324" x2="872.6475" y1="207.9922" y2="207.9922"/><text fill="#000000" font-family="sans-serif" font-size="13" lengthAdjust="spacing" textLength="156.6919" x="578.7324" y="202.9263">fetchStudents(courseId)</text></g><g class="message" data-participant-1="DB" data-participant-2="GradeController"><polygon fill="#181818" points="582.7324,233.125,572.7324,237.125,582.7324,241.125,578.7324,237.125" style="stroke:#181818;stroke-width:1;"/><line style="stroke:#181818;stroke-width:1;stroke-dasharray:2,2;" x1="576.7324" x2="877.6475" y1="237.125" y2="237.125"/><text fill="#000000" font-family="sans-serif" font-size="13" lengthAdjust="spacing" textLength="72.4204" x="588.7324" y="232.0591">studentList</text></g><g class="message" data-participant-1="GradeController" data-participant-2="UI"><polygon fill="#181818" points="261.6113,262.2578,251.6113,266.2578,261.6113,270.2578,257.6113,266.2578" style="stroke:#181818;stroke-width:1;"/><line style="stroke:#181818;stroke-width:1;stroke-dasharray:2,2;" x1="255.6113" x2="570.7324" y1="266.2578" y2="266.2578"/><text fill="#000000" font-family="sans-serif" font-size="13" lengthAdjust="spacing" textLength="128.7241" x="267.6113" y="261.1919">display(studentList)</text></g><g class="message" data-participant-1="Faculty" data-participant-2="UI"><polygon fill="#181818" points="238.6113,291.3906,248.6113,295.3906,238.6113,299.3906,242.6113,295.3906" style="stroke:#181818;stroke-width:1;"/><line style="stroke:#181818;stroke-width:1;" x1="33.4331" x2="244.6113" y1="295.3906" y2="295.3906"/><text fill="#000000" font-family="sans-serif" font-size="13" lengthAdjust="spacing" textLength="154.1973" x="40.4331" y="290.3247">Enter grade and submit</text></g><g class="message" data-participant-1="UI" data-participant-2="GradeController"><polygon fill="#181818" points="559.7324,320.5234,569.7324,324.5234,559.7324,328.5234,563.7324,324.5234" style="stroke:#181818;stroke-width:1;"/><line style="stroke:#181818;stroke-width:1;" x1="250.6113" x2="565.7324" y1="324.5234" y2="324.5234"/><text fill="#000000" font-family="sans-serif" font-size="13" lengthAdjust="spacing" textLength="297.1211" x="257.6113" y="319.4575">submitGrade(studentId, courseId, gradeData)</text></g><g class="message" data-participant-1="GradeController" data-participant-2="DB"><polygon fill="#181818" points="866.6475,349.6563,876.6475,353.6563,866.6475,357.6563,870.6475,353.6563" style="stroke:#181818;stroke-width:1;"/><line style="stroke:#181818;stroke-width:1;" x1="571.7324" x2="872.6475" y1="353.6563" y2="353.6563"/><text fill="#000000" font-family="sans-serif" font-size="13" lengthAdjust="spacing" textLength="282.915" x="578.7324" y="348.5903">saveGrade(studentId, courseId, gradeData)</text></g><g class="message" data-participant-1="DB" data-participant-2="GradeController"><polygon fill="#181818" points="582.7324,378.7891,572.7324,382.7891,582.7324,386.7891,578.7324,382.7891" style="stroke:#181818;stroke-width:1;"/><line style="stroke:#181818;stroke-width:1;stroke-dasharray:2,2;" x1="576.7324" x2="877.6475" y1="382.7891" y2="382.7891"/><text fill="#000000" font-family="sans-serif" font-size="13" lengthAdjust="spacing" textLength="77.9746" x="588.7324" y="377.7231">gradeSaved</text></g><g class="message" data-participant-1="GradeController" data-participant-2="UI"><polygon fill="#181818" points="261.6113,407.9219,251.6113,411.9219,261.6113,415.9219,257.6113,411.9219" style="stroke:#181818;stroke-width:1;"/><line style="stroke:#181818;stroke-width:1;" x1="255.6113" x2="570.7324" y1="411.9219" y2="411.9219"/><text fill="#000000" font-family="sans-serif" font-size="13" lengthAdjust="spacing" textLength="96.0718" x="267.6113" y="406.856">showSuccess()</text></g><g class="message" data-participant-1="UI" data-participant-2="Faculty"><polygon fill="#181818" points="44.4331,437.0547,34.4331,441.0547,44.4331,445.0547,40.4331,441.0547" style="stroke:#181818;stroke-width:1;"/><line style="stroke:#181818;stroke-width:1;" x1="38.4331" x2="249.6113" y1="441.0547" y2="441.0547"/><text fill="#000000" font-family="sans-serif" font-size="13" lengthAdjust="spacing" textLength="191.0264" x="50.4331" y="435.9888">Grade Submission Successful</text></g><!--SRC=[ZP5BQiCm48RtEiKiROWlu4KNZjjY2BHWSe2nD74CZfHgHYs-VVrGeCGsT3dI_vXFaavwWfg-0bbDK7ROUhn11kyUpNWHcbl7t3aBoHlgqCkGAeLQd8SugyO5Qz0FSAwKTbQywnVtSHbwyigWO8Cy5XHAHIDaBwCbXuyxsNNT9xQapjKaUWhBeIKvkk2PQWc6h72Yvx4ogNeIJ_wooE52egyRyhA0RAk25-cfOrb7niLDn_SUX-IFDbtHlLePBUsCXzO0JuYoHxRSpiUFsCeSuB7lOGagnzVS9MNyfly5xB7FadgCCMghPABYg_kfWzR4dAGH9eBdwx-CoaleVm40]--></g></svg>