<svg xmlns="http://www.w3.org/2000/svg" xmlns:xlink="http://www.w3.org/1999/xlink" contentStyleType="text/css" data-diagram-type="SEQUENCE" height="423px" preserveAspectRatio="none" style="width:513px;height:423px;background:#FFFFFF;" version="1.1" viewBox="0 0 513 423" width="513px" zoomAndPan="magnify"><title>Drop Course</title><defs/><g><text fill="#000000" font-family="sans-serif" font-size="14" font-weight="bold" lengthAdjust="spacing" textLength="97.6309" x="206.887" y="27.9951">Drop Course</text><g><title>Student</title><rect fill="#000000" fill-opacity="0.00000" height="223.9297" width="8" x="31.5557" y="118.5938"/><line style="stroke:#181818;stroke-width:0.5;stroke-dasharray:5,5;" x1="35" x2="35" y1="118.5938" y2="342.5234"/></g><g><title>System</title><rect fill="#000000" fill-opacity="0.00000" height="223.9297" width="8" x="188.5391" y="118.5938"/><line style="stroke:#181818;stroke-width:0.5;stroke-dasharray:5,5;" x1="192.436" x2="192.436" y1="118.5938" y2="342.5234"/></g><g><title>DB</title><rect fill="#000000" fill-opacity="0.00000" height="223.9297" width="8" x="381.0757" y="118.5938"/><line style="stroke:#181818;stroke-width:0.5;stroke-dasharray:5,5;" x1="385.0757" x2="385.0757" y1="118.5938" y2="342.5234"/></g><g><title>Notification</title><rect fill="#000000" fill-opacity="0.00000" height="223.9297" width="8" x="456.2402" y="118.5938"/><line style="stroke:#181818;stroke-width:0.5;stroke-dasharray:5,5;" x1="460.0757" x2="460.0757" y1="118.5938" y2="342.5234"/></g><g class="participant participant-head" data-participant="Student"><text fill="#000000" font-family="sans-serif" font-size="14" lengthAdjust="spacing" textLength="55.1113" x="5" y="115.292">Student</text><ellipse cx="35.5557" cy="50.7969" fill="#E2E2F0" rx="8" ry="8" style="stroke:#181818;stroke-width:0.5;"/><path d="M35.5557,58.7969 L35.5557,85.7969 M22.5557,66.7969 L48.5557,66.7969 M35.5557,85.7969 L22.5557,100.7969 M35.5557,85.7969 L48.5557,100.7969" fill="none" style="stroke:#181818;stroke-width:0.5;"/></g><g class="participant participant-tail" data-participant="Student"><text fill="#000000" font-family="sans-serif" font-size="14" lengthAdjust="spacing" textLength="55.1113" x="5" y="354.5186">Student</text><ellipse cx="35.5557" cy="366.3203" fill="#E2E2F0" rx="8" ry="8" style="stroke:#181818;stroke-width:0.5;"/><path d="M35.5557,374.3203 L35.5557,401.3203 M22.5557,382.3203 L48.5557,382.3203 M35.5557,401.3203 L22.5557,416.3203 M35.5557,401.3203 L48.5557,416.3203" fill="none" style="stroke:#181818;stroke-width:0.5;"/></g><g class="participant participant-head" data-participant="SYS"><rect fill="#E2E2F0" height="30.2969" rx="2.5" ry="2.5" style="stroke:#181818;stroke-width:0.5;" width="66.2061" x="159.436" y="87.2969"/><text fill="#000000" font-family="sans-serif" font-size="14" lengthAdjust="spacing" textLength="52.2061" x="166.436" y="107.292">System</text></g><g class="participant participant-tail" data-participant="SYS"><rect fill="#E2E2F0" height="30.2969" rx="2.5" ry="2.5" style="stroke:#181818;stroke-width:0.5;" width="66.2061" x="159.436" y="341.5234"/><text fill="#000000" font-family="sans-serif" font-size="14" lengthAdjust="spacing" textLength="52.2061" x="166.436" y="361.5186">System</text></g><g class="participant participant-head" data-participant="DB"><text fill="#000000" font-family="sans-serif" font-size="14" lengthAdjust="spacing" textLength="20.3848" x="371.8833" y="115.292">DB</text><path d="M367.0757,66.2969 C367.0757,56.2969 385.0757,56.2969 385.0757,56.2969 C385.0757,56.2969 403.0757,56.2969 403.0757,66.2969 L403.0757,92.2969 C403.0757,102.2969 385.0757,102.2969 385.0757,102.2969 C385.0757,102.2969 367.0757,102.2969 367.0757,92.2969 L367.0757,66.2969" fill="#E2E2F0" style="stroke:#181818;stroke-width:0.5;"/><path d="M367.0757,66.2969 C367.0757,76.2969 385.0757,76.2969 385.0757,76.2969 C385.0757,76.2969 403.0757,76.2969 403.0757,66.2969" fill="none" style="stroke:#181818;stroke-width:0.5;"/></g><g class="participant participant-tail" data-participant="DB"><text fill="#000000" font-family="sans-serif" font-size="14" lengthAdjust="spacing" textLength="20.3848" x="371.8833" y="354.5186">DB</text><path d="M367.0757,367.8203 C367.0757,357.8203 385.0757,357.8203 385.0757,357.8203 C385.0757,357.8203 403.0757,357.8203 403.0757,367.8203 L403.0757,393.8203 C403.0757,403.8203 385.0757,403.8203 385.0757,403.8203 C385.0757,403.8203 367.0757,403.8203 367.0757,393.8203 L367.0757,367.8203" fill="#E2E2F0" style="stroke:#181818;stroke-width:0.5;"/><path d="M367.0757,367.8203 C367.0757,377.8203 385.0757,377.8203 385.0757,377.8203 C385.0757,377.8203 403.0757,377.8203 403.0757,367.8203" fill="none" style="stroke:#181818;stroke-width:0.5;"/></g><g class="participant participant-head" data-participant="NOTIF"><rect fill="#E2E2F0" height="30.2969" rx="2.5" ry="2.5" style="stroke:#181818;stroke-width:0.5;" width="94.3291" x="413.0757" y="87.2969"/><text fill="#000000" font-family="sans-serif" font-size="14" lengthAdjust="spacing" textLength="80.3291" x="420.0757" y="107.292">Notification</text></g><g class="participant participant-tail" data-participant="NOTIF"><rect fill="#E2E2F0" height="30.2969" rx="2.5" ry="2.5" style="stroke:#181818;stroke-width:0.5;" width="94.3291" x="413.0757" y="341.5234"/><text fill="#000000" font-family="sans-serif" font-size="14" lengthAdjust="spacing" textLength="80.3291" x="420.0757" y="361.5186">Notification</text></g><g class="message" data-participant-1="Student" data-participant-2="SYS"><polygon fill="#181818" points="180.5391,145.7266,190.5391,149.7266,180.5391,153.7266,184.5391,149.7266" style="stroke:#181818;stroke-width:1;"/><line style="stroke:#181818;stroke-width:1;" x1="35.5557" x2="186.5391" y1="149.7266" y2="149.7266"/><text fill="#000000" font-family="sans-serif" font-size="13" lengthAdjust="spacing" textLength="132.9834" x="42.5557" y="144.6606">Drop course request</text></g><g class="message" data-participant-1="SYS" data-participant-2="DB"><polygon fill="#181818" points="373.0757,174.8594,383.0757,178.8594,373.0757,182.8594,377.0757,178.8594" style="stroke:#181818;stroke-width:1;"/><line style="stroke:#181818;stroke-width:1;" x1="192.5391" x2="379.0757" y1="178.8594" y2="178.8594"/><text fill="#000000" font-family="sans-serif" font-size="13" lengthAdjust="spacing" textLength="113.0073" x="199.5391" y="173.7935">Verify enrollment</text></g><g class="message" data-participant-1="DB" data-participant-2="SYS"><polygon fill="#181818" points="203.5391,203.9922,193.5391,207.9922,203.5391,211.9922,199.5391,207.9922" style="stroke:#181818;stroke-width:1;"/><line style="stroke:#181818;stroke-width:1;stroke-dasharray:2,2;" x1="197.5391" x2="384.0757" y1="207.9922" y2="207.9922"/><text fill="#000000" font-family="sans-serif" font-size="13" lengthAdjust="spacing" textLength="112.3662" x="209.5391" y="202.9263">Enrollment found</text></g><g class="message" data-participant-1="SYS" data-participant-2="DB"><polygon fill="#181818" points="373.0757,233.125,383.0757,237.125,373.0757,241.125,377.0757,237.125" style="stroke:#181818;stroke-width:1;"/><line style="stroke:#181818;stroke-width:1;" x1="192.5391" x2="379.0757" y1="237.125" y2="237.125"/><text fill="#000000" font-family="sans-serif" font-size="13" lengthAdjust="spacing" textLength="168.5366" x="199.5391" y="232.0591">Update status to Dropped</text></g><g class="message" data-participant-1="DB" data-participant-2="SYS"><polygon fill="#181818" points="203.5391,262.2578,193.5391,266.2578,203.5391,270.2578,199.5391,266.2578" style="stroke:#181818;stroke-width:1;"/><line style="stroke:#181818;stroke-width:1;stroke-dasharray:2,2;" x1="197.5391" x2="384.0757" y1="266.2578" y2="266.2578"/><text fill="#000000" font-family="sans-serif" font-size="13" lengthAdjust="spacing" textLength="104.6665" x="209.5391" y="261.1919">Drop completed</text></g><g class="message" data-participant-1="SYS" data-participant-2="NOTIF"><polygon fill="#181818" points="448.2402,291.3906,458.2402,295.3906,448.2402,299.3906,452.2402,295.3906" style="stroke:#181818;stroke-width:1;"/><line style="stroke:#181818;stroke-width:1;" x1="192.5391" x2="454.2402" y1="295.3906" y2="295.3906"/><text fill="#000000" font-family="sans-serif" font-size="13" lengthAdjust="spacing" textLength="153.2134" x="199.5391" y="290.3247">Send drop confirmation</text></g><g class="message" data-participant-1="NOTIF" data-participant-2="Student"><polygon fill="#181818" points="46.5557,320.5234,36.5557,324.5234,46.5557,328.5234,42.5557,324.5234" style="stroke:#181818;stroke-width:1;"/><line style="stroke:#181818;stroke-width:1;stroke-dasharray:2,2;" x1="40.5557" x2="459.2402" y1="324.5234" y2="324.5234"/><text fill="#000000" font-family="sans-serif" font-size="13" lengthAdjust="spacing" textLength="102.9717" x="52.5557" y="319.4575">Drop successful</text></g><!--SRC=[LO-nJiGm38PtFuNL_Lw0WQ4K99PZ220nciIH8gL9BdQ6UtlIj3hKrV_lpvyrQ6HSQYxuabiL1Y2hkQBHvZWf5AeQR2YK52Tp5-LrGX8qFmOSAVsIC4xBF8RBVEvVimOVB6d8QHIk7v_lRm0772_F6mUVTW4x1B3ohR4eR4alB7FFlxa6VqTEDSUuRbvzV7cilpxcw7DB3axBNwMBCegIDa7DurfXTsOS2ck9hFnF6COzDfmSkhsJVAZhU0hsU52EdmwID6jPnBVu1m00]--></g></svg>