<svg xmlns="http://www.w3.org/2000/svg" xmlns:xlink="http://www.w3.org/1999/xlink" contentStyleType="text/css" data-diagram-type="SEQUENCE" height="635px" preserveAspectRatio="none" style="width:583px;height:635px;background:#FFFFFF;" version="1.1" viewBox="0 0 583 635" width="583px" zoomAndPan="magnify"><title>Register for Course</title><defs/><g><text fill="#000000" font-family="sans-serif" font-size="14" font-weight="bold" lengthAdjust="spacing" textLength="153.4736" x="215.9055" y="27.9951">Register for Course</text><rect fill="none" height="314.4609" style="stroke:#000000;stroke-width:1.5;" width="566.2847" x="10" y="222.9922"/><rect fill="none" height="193.9297" style="stroke:#000000;stroke-width:1.5;" width="546.2847" x="20" y="336.5234"/><g><title>Student</title><rect fill="#000000" fill-opacity="0.00000" height="435.8594" width="8" x="56.5557" y="118.5938"/><line style="stroke:#181818;stroke-width:0.5;stroke-dasharray:5,5;" x1="60" x2="60" y1="118.5938" y2="554.4531"/></g><g><title>System</title><rect fill="#000000" fill-opacity="0.00000" height="435.8594" width="8" x="259.1724" y="118.5938"/><line style="stroke:#181818;stroke-width:0.5;stroke-dasharray:5,5;" x1="263.0693" x2="263.0693" y1="118.5938" y2="554.4531"/></g><g><title>DB</title><rect fill="#000000" fill-opacity="0.00000" height="435.8594" width="8" x="429.9556" y="118.5938"/><line style="stroke:#181818;stroke-width:0.5;stroke-dasharray:5,5;" x1="433.9556" x2="433.9556" y1="118.5938" y2="554.4531"/></g><g><title>Notification</title><rect fill="#000000" fill-opacity="0.00000" height="435.8594" width="8" x="505.1201" y="118.5938"/><line style="stroke:#181818;stroke-width:0.5;stroke-dasharray:5,5;" x1="508.9556" x2="508.9556" y1="118.5938" y2="554.4531"/></g><g class="participant participant-head" data-participant="Student"><text fill="#000000" font-family="sans-serif" font-size="14" lengthAdjust="spacing" textLength="55.1113" x="30" y="115.292">Student</text><ellipse cx="60.5557" cy="50.7969" fill="#E2E2F0" rx="8" ry="8" style="stroke:#181818;stroke-width:0.5;"/><path d="M60.5557,58.7969 L60.5557,85.7969 M47.5557,66.7969 L73.5557,66.7969 M60.5557,85.7969 L47.5557,100.7969 M60.5557,85.7969 L73.5557,100.7969" fill="none" style="stroke:#181818;stroke-width:0.5;"/></g><g class="participant participant-tail" data-participant="Student"><text fill="#000000" font-family="sans-serif" font-size="14" lengthAdjust="spacing" textLength="55.1113" x="30" y="566.4482">Student</text><ellipse cx="60.5557" cy="578.25" fill="#E2E2F0" rx="8" ry="8" style="stroke:#181818;stroke-width:0.5;"/><path d="M60.5557,586.25 L60.5557,613.25 M47.5557,594.25 L73.5557,594.25 M60.5557,613.25 L47.5557,628.25 M60.5557,613.25 L73.5557,628.25" fill="none" style="stroke:#181818;stroke-width:0.5;"/></g><g class="participant participant-head" data-participant="SYS"><rect fill="#E2E2F0" height="30.2969" rx="2.5" ry="2.5" style="stroke:#181818;stroke-width:0.5;" width="66.2061" x="230.0693" y="87.2969"/><text fill="#000000" font-family="sans-serif" font-size="14" lengthAdjust="spacing" textLength="52.2061" x="237.0693" y="107.292">System</text></g><g class="participant participant-tail" data-participant="SYS"><rect fill="#E2E2F0" height="30.2969" rx="2.5" ry="2.5" style="stroke:#181818;stroke-width:0.5;" width="66.2061" x="230.0693" y="553.4531"/><text fill="#000000" font-family="sans-serif" font-size="14" lengthAdjust="spacing" textLength="52.2061" x="237.0693" y="573.4482">System</text></g><g class="participant participant-head" data-participant="DB"><text fill="#000000" font-family="sans-serif" font-size="14" lengthAdjust="spacing" textLength="20.3848" x="420.7632" y="115.292">DB</text><path d="M415.9556,66.2969 C415.9556,56.2969 433.9556,56.2969 433.9556,56.2969 C433.9556,56.2969 451.9556,56.2969 451.9556,66.2969 L451.9556,92.2969 C451.9556,102.2969 433.9556,102.2969 433.9556,102.2969 C433.9556,102.2969 415.9556,102.2969 415.9556,92.2969 L415.9556,66.2969" fill="#E2E2F0" style="stroke:#181818;stroke-width:0.5;"/><path d="M415.9556,66.2969 C415.9556,76.2969 433.9556,76.2969 433.9556,76.2969 C433.9556,76.2969 451.9556,76.2969 451.9556,66.2969" fill="none" style="stroke:#181818;stroke-width:0.5;"/></g><g class="participant participant-tail" data-participant="DB"><text fill="#000000" font-family="sans-serif" font-size="14" lengthAdjust="spacing" textLength="20.3848" x="420.7632" y="566.4482">DB</text><path d="M415.9556,579.75 C415.9556,569.75 433.9556,569.75 433.9556,569.75 C433.9556,569.75 451.9556,569.75 451.9556,579.75 L451.9556,605.75 C451.9556,615.75 433.9556,615.75 433.9556,615.75 C433.9556,615.75 415.9556,615.75 415.9556,605.75 L415.9556,579.75" fill="#E2E2F0" style="stroke:#181818;stroke-width:0.5;"/><path d="M415.9556,579.75 C415.9556,589.75 433.9556,589.75 433.9556,589.75 C433.9556,589.75 451.9556,589.75 451.9556,579.75" fill="none" style="stroke:#181818;stroke-width:0.5;"/></g><g class="participant participant-head" data-participant="NOTIF"><rect fill="#E2E2F0" height="30.2969" rx="2.5" ry="2.5" style="stroke:#181818;stroke-width:0.5;" width="94.3291" x="461.9556" y="87.2969"/><text fill="#000000" font-family="sans-serif" font-size="14" lengthAdjust="spacing" textLength="80.3291" x="468.9556" y="107.292">Notification</text></g><g class="participant participant-tail" data-participant="NOTIF"><rect fill="#E2E2F0" height="30.2969" rx="2.5" ry="2.5" style="stroke:#181818;stroke-width:0.5;" width="94.3291" x="461.9556" y="553.4531"/><text fill="#000000" font-family="sans-serif" font-size="14" lengthAdjust="spacing" textLength="80.3291" x="468.9556" y="573.4482">Notification</text></g><g class="message" data-participant-1="Student" data-participant-2="SYS"><polygon fill="#181818" points="251.1724,145.7266,261.1724,149.7266,251.1724,153.7266,255.1724,149.7266" style="stroke:#181818;stroke-width:1;"/><line style="stroke:#181818;stroke-width:1;" x1="60.5557" x2="257.1724" y1="149.7266" y2="149.7266"/><text fill="#000000" font-family="sans-serif" font-size="13" lengthAdjust="spacing" textLength="152.915" x="67.5557" y="144.6606">Select course &amp; section</text></g><g class="message" data-participant-1="SYS" data-participant-2="DB"><polygon fill="#181818" points="421.9556,174.8594,431.9556,178.8594,421.9556,182.8594,425.9556,178.8594" style="stroke:#181818;stroke-width:1;"/><line style="stroke:#181818;stroke-width:1;" x1="263.1724" x2="427.9556" y1="178.8594" y2="178.8594"/><text fill="#000000" font-family="sans-serif" font-size="13" lengthAdjust="spacing" textLength="129.416" x="270.1724" y="173.7935">Check prerequisites</text></g><g class="message" data-participant-1="DB" data-participant-2="SYS"><polygon fill="#181818" points="274.1724,203.9922,264.1724,207.9922,274.1724,211.9922,270.1724,207.9922" style="stroke:#181818;stroke-width:1;"/><line style="stroke:#181818;stroke-width:1;stroke-dasharray:2,2;" x1="268.1724" x2="432.9556" y1="207.9922" y2="207.9922"/><text fill="#000000" font-family="sans-serif" font-size="13" lengthAdjust="spacing" textLength="83.9731" x="280.1724" y="202.9263">Prereq result</text></g><path d="M10,222.9922 L74.4429,222.9922 L74.4429,230.125 L64.4429,240.125 L10,240.125 L10,222.9922" fill="#EEEEEE" style="stroke:#000000;stroke-width:1.5;"/><rect fill="none" height="314.4609" style="stroke:#000000;stroke-width:1.5;" width="566.2847" x="10" y="222.9922"/><text fill="#000000" font-family="sans-serif" font-size="13" font-weight="bold" lengthAdjust="spacing" textLength="19.4429" x="25" y="236.0591">alt</text><text fill="#000000" font-family="sans-serif" font-size="11" font-weight="bold" lengthAdjust="spacing" textLength="145.2451" x="89.4429" y="235.2026">[prerequisites not met]</text><g class="message" data-participant-1="SYS" data-participant-2="Student"><polygon fill="#181818" points="71.5557,257.2578,61.5557,261.2578,71.5557,265.2578,67.5557,261.2578" style="stroke:#181818;stroke-width:1;"/><line style="stroke:#181818;stroke-width:1;" x1="65.5557" x2="262.1724" y1="261.2578" y2="261.2578"/><text fill="#000000" font-family="sans-serif" font-size="13" lengthAdjust="spacing" textLength="178.6167" x="77.5557" y="256.1919">Error: Missing prerequisites</text></g><line style="stroke:#000000;stroke-width:1;stroke-dasharray:2,2;" x1="10" x2="576.2847" y1="270.2578" y2="270.2578"/><g class="message" data-participant-1="SYS" data-participant-2="DB"><polygon fill="#181818" points="421.9556,288.3906,431.9556,292.3906,421.9556,296.3906,425.9556,292.3906" style="stroke:#181818;stroke-width:1;"/><line style="stroke:#181818;stroke-width:1;" x1="263.1724" x2="427.9556" y1="292.3906" y2="292.3906"/><text fill="#000000" font-family="sans-serif" font-size="13" lengthAdjust="spacing" textLength="146.7832" x="270.1724" y="287.3247">Check seat availability</text></g><g class="message" data-participant-1="DB" data-participant-2="SYS"><polygon fill="#181818" points="274.1724,317.5234,264.1724,321.5234,274.1724,325.5234,270.1724,321.5234" style="stroke:#181818;stroke-width:1;"/><line style="stroke:#181818;stroke-width:1;stroke-dasharray:2,2;" x1="268.1724" x2="432.9556" y1="321.5234" y2="321.5234"/><text fill="#000000" font-family="sans-serif" font-size="13" lengthAdjust="spacing" textLength="99.0234" x="280.1724" y="316.4575">Seat available?</text></g><path d="M20,336.5234 L84.4429,336.5234 L84.4429,343.6563 L74.4429,353.6563 L20,353.6563 L20,336.5234" fill="#EEEEEE" style="stroke:#000000;stroke-width:1.5;"/><rect fill="none" height="193.9297" style="stroke:#000000;stroke-width:1.5;" width="546.2847" x="20" y="336.5234"/><text fill="#000000" font-family="sans-serif" font-size="13" font-weight="bold" lengthAdjust="spacing" textLength="19.4429" x="35" y="349.5903">alt</text><text fill="#000000" font-family="sans-serif" font-size="11" font-weight="bold" lengthAdjust="spacing" textLength="62.5088" x="99.4429" y="348.7339">[no seats]</text><g class="message" data-participant-1="SYS" data-participant-2="Student"><polygon fill="#181818" points="71.5557,370.7891,61.5557,374.7891,71.5557,378.7891,67.5557,374.7891" style="stroke:#181818;stroke-width:1;"/><line style="stroke:#181818;stroke-width:1;" x1="65.5557" x2="262.1724" y1="374.7891" y2="374.7891"/><text fill="#000000" font-family="sans-serif" font-size="13" lengthAdjust="spacing" textLength="75.3721" x="77.5557" y="369.7231">Section Full</text></g><line style="stroke:#000000;stroke-width:1;stroke-dasharray:2,2;" x1="20" x2="566.2847" y1="383.7891" y2="383.7891"/><g class="message" data-participant-1="SYS" data-participant-2="DB"><polygon fill="#181818" points="421.9556,401.9219,431.9556,405.9219,421.9556,409.9219,425.9556,405.9219" style="stroke:#181818;stroke-width:1;"/><line style="stroke:#181818;stroke-width:1;" x1="263.1724" x2="427.9556" y1="405.9219" y2="405.9219"/><text fill="#000000" font-family="sans-serif" font-size="13" lengthAdjust="spacing" textLength="122.9033" x="270.1724" y="400.856">Create registration</text></g><g class="message" data-participant-1="DB" data-participant-2="SYS"><polygon fill="#181818" points="274.1724,431.0547,264.1724,435.0547,274.1724,439.0547,270.1724,435.0547" style="stroke:#181818;stroke-width:1;"/><line style="stroke:#181818;stroke-width:1;stroke-dasharray:2,2;" x1="268.1724" x2="432.9556" y1="435.0547" y2="435.0547"/><text fill="#000000" font-family="sans-serif" font-size="13" lengthAdjust="spacing" textLength="121.7925" x="280.1724" y="429.9888">Registration saved</text></g><g class="message" data-participant-1="SYS" data-participant-2="NOTIF"><polygon fill="#181818" points="497.1201,460.1875,507.1201,464.1875,497.1201,468.1875,501.1201,464.1875" style="stroke:#181818;stroke-width:1;"/><line style="stroke:#181818;stroke-width:1;" x1="263.1724" x2="503.1201" y1="464.1875" y2="464.1875"/><text fill="#000000" font-family="sans-serif" font-size="13" lengthAdjust="spacing" textLength="119.2788" x="270.1724" y="459.1216">Send confirmation</text></g><g class="message" data-participant-1="NOTIF" data-participant-2="Student"><polygon fill="#181818" points="71.5557,489.3203,61.5557,493.3203,71.5557,497.3203,67.5557,493.3203" style="stroke:#181818;stroke-width:1;"/><line style="stroke:#181818;stroke-width:1;stroke-dasharray:2,2;" x1="65.5557" x2="508.1201" y1="493.3203" y2="493.3203"/><text fill="#000000" font-family="sans-serif" font-size="13" lengthAdjust="spacing" textLength="146.8911" x="77.5557" y="488.2544">Confirmation message</text></g><g class="message" data-participant-1="SYS" data-participant-2="Student"><polygon fill="#181818" points="71.5557,518.4531,61.5557,522.4531,71.5557,526.4531,67.5557,522.4531" style="stroke:#181818;stroke-width:1;"/><line style="stroke:#181818;stroke-width:1;" x1="65.5557" x2="262.1724" y1="522.4531" y2="522.4531"/><text fill="#000000" font-family="sans-serif" font-size="13" lengthAdjust="spacing" textLength="150.3887" x="77.5557" y="517.3872">Registration successful</text></g><!--SRC=[TP71JW8n48RlVOe91s-y00TD04ayY8PwyLYwipYnjDYPal3spXOaMzHDzj3scx_VJ8Ka86nmHooOeKyP5gbaHcES5rrPAHr6CGUNXJmTN1IOs9FI-mau1ljkJUV4RHqZJ9RpkhcSj_mw2VNadL2A5LY_l3sjZBc4m_H-o84PM0pe1NnLW3jWNMcD6KuLMiwLMNoW_uH3nenVXPW4sUZ1z1hoMeyW8vSWsaUGbeQO1FOe1lIx9F-OpE0nvvHdy4pC57Stzs3GoOpAHaACJi0T7GMtfK1ogbmZPaT8m8SA37OnrMgk6tzAsVCSO5L2gDHLv9TCrYJKveSNpNNYLwwHsOm8O7V4xZQlFbAzF7Rw9B6dl6y3pyIqKLsCG9qoizlX_usr5iLxBUZBfSVO6Vs_0G00]--></g></svg>