<svg xmlns="http://www.w3.org/2000/svg" xmlns:xlink="http://www.w3.org/1999/xlink" contentStyleType="text/css" data-diagram-type="SEQUENCE" height="539px" preserveAspectRatio="none" style="width:733px;height:539px;background:#FFFFFF;" version="1.1" viewBox="0 0 733 539" width="733px" zoomAndPan="magnify"><title>Sequence Diagram - Student Views Grades</title><defs/><g><text fill="#000000" font-family="sans-serif" font-size="14" font-weight="bold" lengthAdjust="spacing" textLength="338.8369" x="190.7285" y="27.9951">Sequence Diagram - Student Views Grades</text><g><title>Student</title><rect fill="#000000" fill-opacity="0.00000" height="340.4609" width="8" x="31.5557" y="118.5938"/><line style="stroke:#181818;stroke-width:0.5;stroke-dasharray:5,5;" x1="35" x2="35" y1="118.5938" y2="459.0547"/></g><g><title>UI</title><rect fill="#000000" fill-opacity="0.00000" height="340.4609" width="8" x="227.6089" y="118.5938"/><line style="stroke:#181818;stroke-width:0.5;stroke-dasharray:5,5;" x1="231.1089" x2="231.1089" y1="118.5938" y2="459.0547"/></g><g><title>GradeController</title><rect fill="#000000" fill-opacity="0.00000" height="340.4609" width="8" x="455.0957" y="118.5938"/><line style="stroke:#181818;stroke-width:0.5;stroke-dasharray:5,5;" x1="458.1675" x2="458.1675" y1="118.5938" y2="459.0547"/></g><g><title>DB</title><rect fill="#000000" fill-opacity="0.00000" height="340.4609" width="8" x="694.2939" y="118.5938"/><line style="stroke:#181818;stroke-width:0.5;stroke-dasharray:5,5;" x1="698.2939" x2="698.2939" y1="118.5938" y2="459.0547"/></g><g class="participant participant-head" data-participant="Student"><text fill="#000000" font-family="sans-serif" font-size="14" lengthAdjust="spacing" textLength="55.1113" x="5" y="115.292">Student</text><ellipse cx="35.5557" cy="50.7969" fill="#E2E2F0" rx="8" ry="8" style="stroke:#181818;stroke-width:0.5;"/><path d="M35.5557,58.7969 L35.5557,85.7969 M22.5557,66.7969 L48.5557,66.7969 M35.5557,85.7969 L22.5557,100.7969 M35.5557,85.7969 L48.5557,100.7969" fill="none" style="stroke:#181818;stroke-width:0.5;"/></g><g class="participant participant-tail" data-participant="Student"><text fill="#000000" font-family="sans-serif" font-size="14" lengthAdjust="spacing" textLength="55.1113" x="5" y="471.0498">Student</text><ellipse cx="35.5557" cy="482.8516" fill="#E2E2F0" rx="8" ry="8" style="stroke:#181818;stroke-width:0.5;"/><path d="M35.5557,490.8516 L35.5557,517.8516 M22.5557,498.8516 L48.5557,498.8516 M35.5557,517.8516 L22.5557,532.8516 M35.5557,517.8516 L48.5557,532.8516" fill="none" style="stroke:#181818;stroke-width:0.5;"/></g><g class="participant participant-head" data-participant="UI"><text fill="#000000" font-family="sans-serif" font-size="14" lengthAdjust="spacing" textLength="14.376" x="221.4209" y="115.292">UI</text><path d="M211.1089,74.2969 L211.1089,98.2969 M211.1089,86.2969 L228.1089,86.2969" fill="none" style="stroke:#181818;stroke-width:0.5;"/><ellipse cx="240.1089" cy="86.2969" fill="#E2E2F0" rx="12" ry="12" style="stroke:#181818;stroke-width:0.5;"/></g><g class="participant participant-tail" data-participant="UI"><text fill="#000000" font-family="sans-serif" font-size="14" lengthAdjust="spacing" textLength="14.376" x="221.4209" y="471.0498">UI</text><path d="M211.1089,478.3516 L211.1089,502.3516 M211.1089,490.3516 L228.1089,490.3516" fill="none" style="stroke:#181818;stroke-width:0.5;"/><ellipse cx="240.1089" cy="490.3516" fill="#E2E2F0" rx="12" ry="12" style="stroke:#181818;stroke-width:0.5;"/></g><g class="participant participant-head" data-participant="GradeController"><text fill="#000000" font-family="sans-serif" font-size="14" lengthAdjust="spacing" textLength="111.8564" x="400.1675" y="115.292">GradeController</text><ellipse cx="459.0957" cy="86.2969" fill="#E2E2F0" rx="12" ry="12" style="stroke:#181818;stroke-width:0.5;"/><polygon fill="#181818" points="455.0957,74.2969,461.0957,69.2969,459.0957,74.2969,461.0957,79.2969,455.0957,74.2969" style="stroke:#181818;stroke-width:1;"/></g><g class="participant participant-tail" data-participant="GradeController"><text fill="#000000" font-family="sans-serif" font-size="14" lengthAdjust="spacing" textLength="111.8564" x="400.1675" y="471.0498">GradeController</text><ellipse cx="459.0957" cy="490.3516" fill="#E2E2F0" rx="12" ry="12" style="stroke:#181818;stroke-width:0.5;"/><polygon fill="#181818" points="455.0957,478.3516,461.0957,473.3516,459.0957,478.3516,461.0957,483.3516,455.0957,478.3516" style="stroke:#181818;stroke-width:1;"/></g><g class="participant participant-head" data-participant="DB"><text fill="#000000" font-family="sans-serif" font-size="14" lengthAdjust="spacing" textLength="20.3848" x="685.1016" y="115.292">DB</text><path d="M680.2939,66.2969 C680.2939,56.2969 698.2939,56.2969 698.2939,56.2969 C698.2939,56.2969 716.2939,56.2969 716.2939,66.2969 L716.2939,92.2969 C716.2939,102.2969 698.2939,102.2969 698.2939,102.2969 C698.2939,102.2969 680.2939,102.2969 680.2939,92.2969 L680.2939,66.2969" fill="#E2E2F0" style="stroke:#181818;stroke-width:0.5;"/><path d="M680.2939,66.2969 C680.2939,76.2969 698.2939,76.2969 698.2939,76.2969 C698.2939,76.2969 716.2939,76.2969 716.2939,66.2969" fill="none" style="stroke:#181818;stroke-width:0.5;"/></g><g class="participant participant-tail" data-participant="DB"><text fill="#000000" font-family="sans-serif" font-size="14" lengthAdjust="spacing" textLength="20.3848" x="685.1016" y="471.0498">DB</text><path d="M680.2939,484.3516 C680.2939,474.3516 698.2939,474.3516 698.2939,474.3516 C698.2939,474.3516 716.2939,474.3516 716.2939,484.3516 L716.2939,510.3516 C716.2939,520.3516 698.2939,520.3516 698.2939,520.3516 C698.2939,520.3516 680.2939,520.3516 680.2939,510.3516 L680.2939,484.3516" fill="#E2E2F0" style="stroke:#181818;stroke-width:0.5;"/><path d="M680.2939,484.3516 C680.2939,494.3516 698.2939,494.3516 698.2939,494.3516 C698.2939,494.3516 716.2939,494.3516 716.2939,484.3516" fill="none" style="stroke:#181818;stroke-width:0.5;"/></g><g class="message" data-participant-1="Student" data-participant-2="UI"><polygon fill="#181818" points="219.6089,145.7266,229.6089,149.7266,219.6089,153.7266,223.6089,149.7266" style="stroke:#181818;stroke-width:1;"/><line style="stroke:#181818;stroke-width:1;" x1="35.5557" x2="225.6089" y1="149.7266" y2="149.7266"/><text fill="#000000" font-family="sans-serif" font-size="13" lengthAdjust="spacing" textLength="156.4507" x="42.5557" y="144.6606">Open "My Grades" Page</text></g><g class="message" data-participant-1="UI" data-participant-2="GradeController"><polygon fill="#181818" points="447.0957,174.8594,457.0957,178.8594,447.0957,182.8594,451.0957,178.8594" style="stroke:#181818;stroke-width:1;"/><line style="stroke:#181818;stroke-width:1;" x1="231.6089" x2="453.0957" y1="178.8594" y2="178.8594"/><text fill="#000000" font-family="sans-serif" font-size="13" lengthAdjust="spacing" textLength="198.6563" x="238.6089" y="173.7935">getEnrolledCourses(studentId)</text></g><g class="message" data-participant-1="GradeController" data-participant-2="DB"><polygon fill="#181818" points="686.2939,203.9922,696.2939,207.9922,686.2939,211.9922,690.2939,207.9922" style="stroke:#181818;stroke-width:1;"/><line style="stroke:#181818;stroke-width:1;" x1="459.0957" x2="692.2939" y1="207.9922" y2="207.9922"/><text fill="#000000" font-family="sans-serif" font-size="13" lengthAdjust="spacing" textLength="157.1426" x="466.0957" y="202.9263">fetchCourses(studentId)</text></g><g class="message" data-participant-1="DB" data-participant-2="GradeController"><polygon fill="#181818" points="470.0957,233.125,460.0957,237.125,470.0957,241.125,466.0957,237.125" style="stroke:#181818;stroke-width:1;"/><line style="stroke:#181818;stroke-width:1;stroke-dasharray:2,2;" x1="464.0957" x2="697.2939" y1="237.125" y2="237.125"/><text fill="#000000" font-family="sans-serif" font-size="13" lengthAdjust="spacing" textLength="66.1807" x="476.0957" y="232.0591">courseList</text></g><g class="message" data-participant-1="GradeController" data-participant-2="UI"><polygon fill="#181818" points="242.6089,262.2578,232.6089,266.2578,242.6089,270.2578,238.6089,266.2578" style="stroke:#181818;stroke-width:1;"/><line style="stroke:#181818;stroke-width:1;stroke-dasharray:2,2;" x1="236.6089" x2="458.0957" y1="266.2578" y2="266.2578"/><text fill="#000000" font-family="sans-serif" font-size="13" lengthAdjust="spacing" textLength="174.6431" x="248.6089" y="261.1919">displayCourses(courseList)</text></g><g class="message" data-participant-1="Student" data-participant-2="UI"><polygon fill="#181818" points="219.6089,291.3906,229.6089,295.3906,219.6089,299.3906,223.6089,295.3906" style="stroke:#181818;stroke-width:1;"/><line style="stroke:#181818;stroke-width:1;" x1="35.5557" x2="225.6089" y1="295.3906" y2="295.3906"/><text fill="#000000" font-family="sans-serif" font-size="13" lengthAdjust="spacing" textLength="87.6929" x="42.5557" y="290.3247">Select course</text></g><g class="message" data-participant-1="UI" data-participant-2="GradeController"><polygon fill="#181818" points="447.0957,320.5234,457.0957,324.5234,447.0957,328.5234,451.0957,324.5234" style="stroke:#181818;stroke-width:1;"/><line style="stroke:#181818;stroke-width:1;" x1="231.6089" x2="453.0957" y1="324.5234" y2="324.5234"/><text fill="#000000" font-family="sans-serif" font-size="13" lengthAdjust="spacing" textLength="203.4868" x="238.6089" y="319.4575">getGrades(studentId, courseId)</text></g><g class="message" data-participant-1="GradeController" data-participant-2="DB"><polygon fill="#181818" points="686.2939,349.6563,696.2939,353.6563,686.2939,357.6563,690.2939,353.6563" style="stroke:#181818;stroke-width:1;"/><line style="stroke:#181818;stroke-width:1;" x1="459.0957" x2="692.2939" y1="353.6563" y2="353.6563"/><text fill="#000000" font-family="sans-serif" font-size="13" lengthAdjust="spacing" textLength="215.1982" x="466.0957" y="348.5903">fetchGrades(studentId, courseId)</text></g><g class="message" data-participant-1="DB" data-participant-2="GradeController"><polygon fill="#181818" points="470.0957,378.7891,460.0957,382.7891,470.0957,386.7891,466.0957,382.7891" style="stroke:#181818;stroke-width:1;"/><line style="stroke:#181818;stroke-width:1;stroke-dasharray:2,2;" x1="464.0957" x2="697.2939" y1="382.7891" y2="382.7891"/><text fill="#000000" font-family="sans-serif" font-size="13" lengthAdjust="spacing" textLength="67.3105" x="476.0957" y="377.7231">gradesList</text></g><g class="message" data-participant-1="GradeController" data-participant-2="UI"><polygon fill="#181818" points="242.6089,407.9219,232.6089,411.9219,242.6089,415.9219,238.6089,411.9219" style="stroke:#181818;stroke-width:1;"/><line style="stroke:#181818;stroke-width:1;stroke-dasharray:2,2;" x1="236.6089" x2="458.0957" y1="411.9219" y2="411.9219"/><text fill="#000000" font-family="sans-serif" font-size="13" lengthAdjust="spacing" textLength="170.022" x="248.6089" y="406.856">displayGrades(gradesList)</text></g><g class="message" data-participant-1="UI" data-participant-2="Student"><polygon fill="#181818" points="46.5557,437.0547,36.5557,441.0547,46.5557,445.0547,42.5557,441.0547" style="stroke:#181818;stroke-width:1;"/><line style="stroke:#181818;stroke-width:1;" x1="40.5557" x2="230.6089" y1="441.0547" y2="441.0547"/><text fill="#000000" font-family="sans-serif" font-size="13" lengthAdjust="spacing" textLength="172.0532" x="52.5557" y="435.9888">Show course grade details</text></g><!--SRC=[XO_BQiCm44Nt-eeXgnhg7_0Y2yUb618QCCb-8aqTWIAbqfZWlwzZoHZoN0vpxvavhDaGDFJNaPK4bSRMumboQBXJP1dscYu1lZqg2aAWPEUddJYupYhqFUng8PrbxqnChk9Wo0k5Z0SC0xeKOeBcow5ImC-PB2msVS8lO8ijYLrztTzm2cY9l-mug9NhVA3m4IAkLfcuYLy9LLd0Bx4yFeXN9UIFZiWnkjQ1xudfQQN3sM0_GUT6TkVNa2792Vh2A-hF_tscoZknLxrdXktO6GtVAIRytCYIGz8S18_kacv6C2XYr2Ry0m00]--></g></svg>